<svg xmlns="http://www.w3.org/2000/svg" xmlns:xlink="http://www.w3.org/1999/xlink" viewBox="0 0 140 140"><path d="M 64.528 65.893 C 64.528 70.21 62.259 72.666 58.736 73.5 C 58.695 73.5 64.377 82.431 64.377 82.431 L 57.493 82.431 L 49.169 69.148 L 55.037 69.148 C 57.575 69.148 58.52 67.748 58.52 66.045 C 58.52 64.382 57.61 62.941 55.078 62.941 L 48.218 62.941 L 48.218 82.431 L 42.163 82.431 L 42.163 57.569 L 55.032 57.569 C 61.425 57.569 64.528 61.162 64.528 65.893 Z M 32.019 82.431 L 38.074 82.431 L 38.074 57.569 L 32.019 57.569 Z M 12.682 57.569 L 0 82.431 L 6.813 82.431 L 8.867 78.266 L 19.075 78.266 L 16.538 73.045 L 11.445 73.045 L 15.213 65.397 L 15.289 65.397 L 23.765 82.431 L 30.73 82.431 L 18.054 57.569 Z M 86.637 69.527 C 89.023 70.361 90.65 72.555 90.65 75.471 C 90.65 79.671 87.284 82.436 82.133 82.436 L 67.41 82.436 L 67.41 57.569 L 81.568 57.569 C 86.602 57.569 89.594 60.258 89.594 64.266 C 89.588 66.762 88.568 68.466 86.637 69.527 Z M 73.465 67.217 L 81.527 67.217 C 81.816 67.224 82.104 67.171 82.373 67.063 C 82.642 66.955 82.887 66.794 83.092 66.589 C 83.297 66.384 83.458 66.14 83.566 65.871 C 83.674 65.602 83.726 65.314 83.72 65.024 C 83.727 64.737 83.676 64.451 83.571 64.184 C 83.465 63.917 83.307 63.674 83.106 63.47 C 82.904 63.265 82.664 63.103 82.399 62.993 C 82.133 62.883 81.849 62.828 81.562 62.831 L 73.465 62.831 Z M 81.713 77.21 C 82.056 77.22 82.397 77.161 82.716 77.036 C 83.035 76.911 83.325 76.722 83.569 76.482 C 83.814 76.241 84.007 75.954 84.137 75.637 C 84.267 75.32 84.332 74.98 84.327 74.637 C 84.327 73.196 83.189 72.141 81.713 72.141 L 73.465 72.141 L 73.465 77.21 Z M 109.76 71.458 C 109.76 75.232 108.022 77.326 104.574 77.326 C 101.168 77.326 99.429 75.232 99.429 71.458 L 99.429 57.569 L 93.223 57.569 L 93.223 71.003 C 93.223 78.686 97.271 82.961 104.574 82.961 C 111.878 82.961 115.967 78.686 115.967 71.003 L 115.967 57.569 L 109.76 57.569 Z M 132.125 67.445 C 126.379 66.045 125.125 65.911 125.125 64.266 C 125.125 62.994 126.56 62.376 128.987 62.376 C 132.201 62.376 135.631 63.181 137.579 64.382 L 139.51 59.313 C 137.013 57.989 133.338 57.044 129.062 57.044 C 122.663 57.044 119.07 60.223 119.07 64.499 C 119.07 69.101 121.753 70.968 127.925 72.298 C 132.732 73.36 133.753 74.019 133.753 75.366 C 133.753 76.831 132.428 77.484 129.815 77.484 C 126.348 77.519 122.927 76.687 119.863 75.063 L 118.008 80.36 C 121.001 81.952 125.463 82.973 129.967 82.973 C 136.249 82.973 139.994 80.056 139.994 75.174 C 140 71.248 137.468 68.734 132.125 67.445 Z" fill="rgb(29, 29, 31)"></path></svg>