<svg xmlns="http://www.w3.org/2000/svg" xmlns:xlink="http://www.w3.org/1999/xlink" viewBox="0 0 80 80"><g id="ss1462127266_1"><path d="M 0 80 L 0 0 L 80 0 L 80 80 Z" fill="transparent"></path><path d="M 13.673 70.11 C 20.703 76.27 29.923 80 40 80 C 50.087 80 59.297 76.27 66.34 70.11 C 72.597 63.737 51.953 41.08 40 32.053 C 28.06 41.08 7.403 63.737 13.673 70.11 Z M 50.873 22.09 C 59.207 31.96 75.82 56.467 71.127 65.13 C 76.673 58.267 80 49.537 80 40.013 C 80 28.88 75.45 18.807 68.1 11.56 C 68.1 11.56 68.01 11.487 67.827 11.42 C 67.617 11.347 67.32 11.27 66.89 11.27 C 64.917 11.27 60.273 12.717 50.873 22.09 Z M 12.18 11.42 C 11.99 11.487 11.907 11.557 11.893 11.56 C 4.55 18.807 0 28.88 0 40.013 C 0 49.527 3.327 58.257 8.87 65.123 C 4.2 56.44 20.8 31.953 29.137 22.09 C 19.737 12.713 15.083 11.273 13.117 11.273 C 12.68 11.273 12.373 11.343 12.18 11.427 Z M 40 11.837 C 40 11.837 30.183 6.093 22.517 5.82 C 19.507 5.71 17.67 6.803 17.447 6.95 C 24.597 2.153 32.197 0 39.947 0 L 40 0 C 47.78 0 55.35 2.153 62.553 6.95 C 62.327 6.797 60.503 5.71 57.487 5.82 C 49.82 6.093 40 11.817 40 11.817 Z" fill="rgb(29, 29, 31)"></path></g></svg>