<svg xmlns="http://www.w3.org/2000/svg" xmlns:xlink="http://www.w3.org/1999/xlink" viewBox="0 0 140 140"><g id="ss2213859399_1"><path d="M 0 140 L 0 0 L 140 0 L 140 140 Z" fill="transparent"></path><path d="M 81.964 61.57 C 81.27 61.575 80.588 61.76 79.987 62.108 C 79.385 62.456 78.885 62.954 78.534 63.554 C 77.893 64.685 76.049 67.882 75.384 69.014 C 75.239 69.255 75.162 69.53 75.159 69.811 C 75.157 70.092 75.23 70.369 75.37 70.612 C 75.511 70.855 75.714 71.057 75.958 71.195 C 76.203 71.334 76.48 71.404 76.761 71.4 L 87.687 71.4 L 85.727 74.795 C 85.59 75.047 85.388 75.257 85.141 75.403 C 84.895 75.549 84.613 75.625 84.327 75.623 L 82.635 75.623 C 82.069 75.623 81.836 75.01 82.034 74.643 C 82.238 74.275 82.688 73.511 82.688 73.511 L 72.783 73.511 L 71.348 75.996 C 70.677 77.163 71.569 78.423 72.707 78.423 L 91.216 78.423 C 91.925 78.421 92.621 78.232 93.234 77.874 C 93.846 77.517 94.354 77.004 94.704 76.387 C 95.41 75.162 97.067 72.269 97.784 71.044 C 97.944 70.805 98.035 70.528 98.048 70.241 C 98.061 69.954 97.996 69.669 97.859 69.417 C 97.722 69.165 97.519 68.955 97.271 68.81 C 97.024 68.665 96.741 68.59 96.454 68.594 L 85.528 68.594 L 87.547 65.094 C 87.692 64.869 87.892 64.685 88.127 64.557 C 88.363 64.43 88.627 64.364 88.894 64.365 L 90.598 64.365 C 91.158 64.365 91.391 64.971 91.216 65.292 C 90.99 65.691 90.76 66.087 90.528 66.482 L 100.421 66.482 L 101.908 63.915 C 102.038 63.673 102.103 63.401 102.097 63.126 C 102.091 62.851 102.013 62.583 101.872 62.347 C 101.731 62.111 101.532 61.915 101.293 61.779 C 101.053 61.643 100.783 61.571 100.508 61.57 Z M 64.814 65.362 C 62.992 68.515 61.172 71.669 59.354 74.824 C 59.214 75.065 59.013 75.266 58.772 75.406 C 58.531 75.546 58.257 75.621 57.978 75.623 L 56.257 75.623 C 55.703 75.623 55.452 75.016 55.662 74.643 L 61.145 65.141 C 61.288 64.903 61.49 64.707 61.731 64.571 C 61.972 64.435 62.245 64.364 62.522 64.365 L 64.243 64.365 C 64.36 64.364 64.475 64.394 64.576 64.452 C 64.678 64.51 64.762 64.595 64.82 64.696 C 64.879 64.798 64.909 64.913 64.908 65.03 C 64.907 65.147 64.874 65.262 64.814 65.362 Z M 74.13 61.571 L 55.638 61.571 C 54.941 61.573 54.257 61.756 53.651 62.1 C 53.045 62.444 52.538 62.939 52.179 63.536 L 44.957 76.049 C 44.316 77.157 45.191 78.423 46.334 78.423 L 64.861 78.423 C 66.354 78.423 67.661 77.577 68.32 76.451 L 75.53 63.95 C 75.67 63.707 75.744 63.431 75.743 63.151 C 75.742 62.87 75.666 62.594 75.524 62.352 C 75.381 62.111 75.177 61.911 74.932 61.773 C 74.688 61.636 74.411 61.566 74.13 61.571 Z M 40.746 65.362 L 39.328 67.812 C 39.192 68.051 38.994 68.25 38.755 68.387 C 38.516 68.525 38.245 68.596 37.969 68.594 L 32.719 68.594 L 35.163 64.365 L 40.168 64.365 C 40.688 64.365 40.985 64.93 40.746 65.362 Z M 36.692 72.391 L 35.274 74.841 C 35.137 75.081 34.939 75.279 34.701 75.417 C 34.462 75.554 34.191 75.625 33.915 75.623 L 28.665 75.623 L 31.115 71.4 L 36.114 71.4 C 36.633 71.4 36.931 71.954 36.692 72.391 Z M 47.787 61.57 L 26.892 61.57 L 18.772 75.629 L 0 75.629 L 0 78.429 L 38.494 78.423 C 39.894 78.423 41.224 77.694 41.965 76.416 L 44.357 72.257 C 44.858 71.394 44.328 70.285 43.406 70 C 44.093 69.985 44.764 69.798 45.359 69.454 C 45.954 69.11 46.452 68.622 46.807 68.034 L 49.152 63.962 C 49.294 63.721 49.369 63.447 49.371 63.168 C 49.373 62.888 49.301 62.613 49.162 62.371 C 49.024 62.128 48.824 61.926 48.582 61.786 C 48.34 61.645 48.066 61.571 47.787 61.57 Z M 106.038 61.57 L 96.314 78.423 L 119.893 78.423 L 121.508 75.623 L 107.823 75.623 L 110.262 71.4 L 123.947 71.4 L 125.562 68.6 L 111.883 68.6 L 114.322 64.365 L 140 64.365 L 140 61.57 L 106.05 61.57 Z" fill="rgb(29, 29, 31)"></path></g></svg>