<svg xmlns="http://www.w3.org/2000/svg" xmlns:xlink="http://www.w3.org/1999/xlink" viewBox="0 0 140 140"><g id="ss1521824084_1"><path d="M 0 140 L 0 0 L 140 0 L 140 140 Z" fill="transparent"></path><path d="M 106.89 53.299 L 115.984 62.399 L 130.894 62.399 L 130.894 77.315 L 140 86.415 L 140 53.299 Z M 11.667 55.534 L 0 84.467 L 7.636 84.467 L 9.794 78.739 L 22.75 78.739 L 25.13 84.467 L 32.935 84.467 L 20.02 55.534 Z M 36.219 55.534 L 36.219 84.438 L 43.441 84.438 L 43.441 66.401 L 51.246 75.513 L 52.343 75.513 L 60.148 66.436 L 60.148 84.467 L 67.369 84.467 L 67.369 55.534 L 61.075 55.534 L 51.788 66.296 L 42.508 55.534 Z M 72.87 55.534 L 72.87 84.467 L 84.869 84.467 C 96.413 84.467 101.669 78.365 101.669 70.047 C 101.669 62.114 96.203 55.534 85.645 55.534 Z M 80.086 60.842 L 84.706 60.842 C 91.531 60.842 94.214 64.989 94.214 70 C 94.214 74.247 92.044 79.17 84.788 79.17 L 80.086 79.17 Z M 16.007 62.434 L 20.621 73.704 L 11.713 73.704 Z M 115.973 64.225 L 106.616 73.576 L 106.616 86.701 L 119.718 86.701 L 129.074 77.327 L 115.973 77.327 Z" fill="rgb(29, 29, 31)"></path></g></svg>