<svg xmlns="http://www.w3.org/2000/svg" xmlns:xlink="http://www.w3.org/1999/xlink" viewBox="0 0 140 140"><g id="ss2304530335_1"><path d="M 0 140 L 0 0 L 140 0 L 140 140 Z" fill="transparent"></path><path d="M 41.078 98.56 L 25.748 98.56 L 25.748 76.662 L 15.797 76.662 L 15.797 98.56 L 0.058 98.56 L 0 42.117 L 15.797 42.117 L 15.797 63.117 L 25.748 63.117 L 25.748 42.117 L 41.078 42.117 Z M 111.329 98.828 C 127.137 98.817 140 85.686 140 69.872 C 140.023 66.099 139.298 62.359 137.865 58.868 C 136.433 55.377 134.323 52.206 131.656 49.536 C 128.989 46.867 125.82 44.753 122.331 43.318 C 118.841 41.882 115.102 41.152 111.329 41.172 C 95.538 41.16 87.471 52.786 85.476 57.476 C 85.493 50.435 78.552 42.123 70.426 42.111 L 44.275 42.111 L 44.275 98.543 L 68.664 98.548 C 78.499 98.548 85.499 90.032 85.511 82.723 C 87.757 87.319 95.544 98.834 111.335 98.823 Z M 66.617 75.868 C 68.874 75.868 70.653 78.097 70.653 80.634 C 70.653 83.172 68.874 85.4 66.617 85.4 L 58.858 85.4 L 58.858 75.868 Z M 66.646 54.676 C 68.903 54.676 70.683 56.904 70.683 59.442 C 70.683 61.985 68.903 64.213 66.646 64.213 L 58.888 64.213 L 58.888 54.676 Z M 76.971 69.883 C 78.75 69.656 81.713 67.626 82.758 66.325 C 82.39 67.935 82.361 72.59 82.793 74.2 C 81.603 72.368 78.779 70.111 76.971 69.883 Z M 96.979 69.883 C 96.979 67.997 97.351 66.13 98.072 64.387 C 98.794 62.645 99.852 61.062 101.186 59.728 C 102.519 58.395 104.102 57.337 105.845 56.615 C 107.587 55.893 109.455 55.522 111.341 55.522 C 113.227 55.522 115.094 55.893 116.837 56.615 C 118.579 57.337 120.162 58.395 121.496 59.728 C 122.83 61.062 123.888 62.645 124.609 64.387 C 125.331 66.13 125.702 67.997 125.702 69.883 C 125.702 73.693 124.189 77.347 121.495 80.041 C 118.801 82.735 115.148 84.248 111.338 84.248 C 107.528 84.248 103.874 82.735 101.181 80.041 C 98.487 77.347 96.979 73.693 96.979 69.883 Z M 111.341 81.177 C 114.336 81.177 117.209 79.987 119.326 77.869 C 121.444 75.751 122.634 72.879 122.634 69.883 C 122.634 66.888 121.444 64.016 119.326 61.898 C 117.209 59.78 114.336 58.59 111.341 58.59 C 108.346 58.59 105.473 59.78 103.355 61.898 C 101.237 64.016 100.047 66.888 100.047 69.883 C 100.047 72.879 101.237 75.751 103.355 77.869 C 105.473 79.987 108.346 81.177 111.341 81.177 Z" fill="rgb(29, 29, 31)"></path></g></svg>