<svg xmlns="http://www.w3.org/2000/svg" xmlns:xlink="http://www.w3.org/1999/xlink" viewBox="0 0 140 140"><g id="ss891125338_1"><path d="M 0 140 L 0 0 L 140 0 L 140 140 Z" fill="transparent"></path><path d="M 10.967 51.975 L 0 83.323 L 5.746 83.323 L 7.321 79.135 L 14.624 79.135 L 16.193 83.323 L 21.939 83.323 Z M 29.773 54.069 L 26.641 59.809 L 39.183 59.809 L 39.183 83.318 L 44.917 83.318 L 44.917 59.809 L 53.795 59.809 L 64.773 88.025 L 75.221 59.809 L 101.862 59.809 L 98.729 54.069 L 71.05 54.069 L 64.785 70.782 L 57.983 54.069 Z M 124.332 60.853 L 124.332 82.798 L 130.083 82.798 L 130.083 73.914 L 140 83.843 L 140 61.909 L 134.773 61.909 L 134.773 69.738 Z M 31.348 61.378 C 25.077 61.378 20.376 66.086 20.376 72.351 C 20.376 78.622 25.077 83.318 31.342 83.318 C 33.956 83.318 36.563 82.273 38.132 80.71 L 35 75.483 C 33.95 76.533 32.912 77.058 31.342 77.058 C 29.958 77.055 28.631 76.504 27.652 75.524 C 26.674 74.544 26.123 73.217 26.122 71.832 C 26.122 69.218 28.21 66.605 31.342 66.605 C 32.392 66.605 33.956 67.124 34.475 68.168 L 38.132 63.998 C 36.557 62.428 33.956 61.384 31.342 61.384 Z M 75.227 61.378 L 75.227 82.798 L 80.972 82.798 L 80.972 61.384 Z M 87.757 61.378 C 85.668 61.378 83.067 62.428 83.067 66.605 C 83.067 71.832 89.332 74.964 88.813 77.058 C 88.288 78.103 87.238 78.097 86.718 78.097 L 83.067 78.097 L 83.067 82.798 L 89.332 82.798 C 91.945 82.798 94.553 81.229 94.553 78.097 C 94.553 72.351 87.243 68.699 88.813 66.605 C 88.813 66.08 89.851 66.08 89.851 66.08 L 93.514 66.08 L 93.514 61.384 Z M 95.077 61.378 L 95.077 82.798 L 100.818 82.798 L 100.818 61.384 Z M 112.84 61.378 C 106.569 61.378 101.873 66.086 101.873 72.351 C 101.873 78.097 106.569 83.318 112.84 83.318 C 119.105 83.318 123.807 78.622 123.807 72.351 C 123.807 66.086 119.105 61.378 112.84 61.378 Z M 48.58 61.903 L 48.58 83.323 L 54.332 83.323 L 54.332 61.903 Z M 112.84 67.13 C 115.453 67.13 118.061 69.218 118.061 72.351 C 118.059 73.736 117.509 75.063 116.53 76.043 C 115.552 77.023 114.225 77.574 112.84 77.578 C 109.702 77.578 107.094 75.489 107.613 72.351 C 107.613 69.738 109.702 67.13 112.84 67.13 Z M 10.967 68.168 L 12.542 73.395 L 9.392 73.395 Z" fill="rgb(29, 29, 31)"></path></g></svg>