<svg xmlns="http://www.w3.org/2000/svg" xmlns:xlink="http://www.w3.org/1999/xlink" viewBox="0 0 140 140"><path d="M 25.597 48.324 C 23.952 50.289 21.327 51.835 18.702 51.614 C 18.375 48.959 19.658 46.142 21.163 44.398 C 22.808 42.379 25.678 40.95 28 40.834 C 28.274 43.599 27.207 46.305 25.597 48.324 Z M 27.971 52.138 C 24.173 51.917 20.912 54.326 19.116 54.326 C 17.278 54.326 14.519 52.249 11.509 52.308 C 7.601 52.366 3.967 54.6 1.972 58.17 C -2.135 65.298 0.904 75.863 4.865 81.667 C 6.807 84.543 9.135 87.693 12.197 87.582 C 15.091 87.471 16.24 85.674 19.74 85.674 C 23.269 85.674 24.278 87.582 27.346 87.529 C 30.514 87.471 32.509 84.653 34.452 81.778 C 36.668 78.511 37.572 75.338 37.625 75.168 C 37.566 75.11 31.5 72.765 31.442 65.689 C 31.389 59.768 36.225 56.951 36.447 56.788 C 33.717 52.693 29.447 52.249 27.971 52.138 Z M 49.933 44.123 L 49.933 87.226 L 56.554 87.226 L 56.554 72.491 L 65.712 72.491 C 74.077 72.491 79.957 66.681 79.957 58.281 C 79.957 49.875 74.188 44.123 65.934 44.123 L 49.927 44.123 Z M 56.554 49.764 L 64.184 49.764 C 69.924 49.764 73.202 52.856 73.202 58.304 C 73.202 63.753 69.924 66.879 64.155 66.879 L 56.548 66.879 L 56.548 49.759 Z M 92.044 87.553 C 96.203 87.553 100.059 85.429 101.809 82.052 L 101.943 82.052 L 101.943 87.226 L 108.068 87.226 L 108.068 65.771 C 108.068 59.553 103.145 55.539 95.573 55.539 C 88.544 55.539 83.352 59.605 83.16 65.188 L 89.122 65.188 C 89.612 62.534 92.044 60.795 95.381 60.795 C 99.429 60.795 101.698 62.703 101.698 66.214 L 101.698 68.589 L 93.438 69.09 C 85.756 69.557 81.597 72.736 81.597 78.266 C 81.597 83.849 85.89 87.553 92.044 87.553 Z M 93.823 82.443 C 90.294 82.443 88.048 80.728 88.048 78.103 C 88.048 75.39 90.212 73.815 94.342 73.564 L 101.692 73.098 L 101.692 75.53 C 101.692 79.567 98.315 82.443 93.823 82.443 Z M 116.247 98.951 C 122.698 98.951 125.732 96.46 128.38 88.912 L 140 55.953 L 133.274 55.953 L 125.481 81.416 L 125.347 81.416 L 117.553 55.953 L 110.635 55.953 L 121.841 87.337 L 121.24 89.244 C 120.231 92.476 118.592 93.718 115.663 93.718 C 115.144 93.718 114.135 93.66 113.721 93.608 L 113.721 98.782 C 114.106 98.893 115.745 98.945 116.241 98.945 Z" fill="rgb(29, 29, 31)"></path></svg>