<svg width="230" height="230" viewBox="0 0 230 230" fill="none" xmlns="http://www.w3.org/2000/svg">
<g clip-path="url(#clip0_82_2670)">
<rect width="230" height="230" rx="10" fill="#F5F5F7"/>
<path d="M114.069 146.036C105.835 146.049 98.7032 144.158 92.0977 140.376C87.647 137.82 83.7992 134.562 80.5413 130.588C75.8726 124.877 72.8969 118.399 71.7169 111.154C70.4342 103.296 71.3834 95.6678 74.5258 88.3463C76.7319 83.2354 79.8359 78.725 83.8633 74.879C90.5201 68.5415 98.4339 64.6827 107.566 63.4305C116.198 62.2295 124.445 63.5455 132.269 67.3276C135.771 69.0142 138.965 71.1736 141.863 73.7674C146.609 78.0223 150.239 83.0693 152.65 88.9597C154.254 92.8695 155.241 96.9199 155.575 101.136C156.062 107.193 155.28 113.071 153.163 118.769C151.368 123.625 148.725 127.969 145.288 131.84C141.722 135.865 137.528 139.072 132.718 141.487C128.332 143.698 123.689 145.116 118.815 145.717C117.045 145.947 115.262 146.1 114.069 146.036ZM113.235 144.337C114.646 144.26 115.839 144.286 117.032 144.196C120.79 143.889 124.433 143.072 127.934 141.73C135.399 138.881 141.568 134.281 146.327 127.841C150.957 121.567 153.522 114.527 153.959 106.759C154.369 99.4371 152.868 92.499 149.367 86.0081C145.403 78.725 139.747 73.1413 132.372 69.3081C125.433 65.7177 118.045 64.261 110.247 64.8488C106.065 65.1682 102.012 66.0627 98.126 67.6598C89.2118 71.3269 82.337 77.3067 77.7067 85.7653C73.2688 93.8662 71.8964 102.516 73.551 111.537C75.5647 122.513 81.3878 131.125 90.6099 137.399C97.4719 142.075 105.129 144.311 113.235 144.337Z" fill="#383838"/>
<path d="M166.913 132.211C165.823 132.198 165.81 132.198 165.707 133.195C165.502 135.252 164.63 136.977 163.193 138.446C162.693 138.957 162.116 139.354 161.385 139.443C160.936 139.494 160.654 139.724 160.615 140.158C160.487 141.922 159.499 142.893 157.819 143.263C156.909 143.468 156.408 144.068 156.19 144.963C155.6 147.327 153.894 148.732 151.881 149.844C150.996 150.329 150.021 150.24 149.059 150.201C148.764 150.189 148.713 150.01 148.802 149.767C148.905 149.511 149.046 149.269 149.277 149.09C149.38 149.013 149.482 148.937 149.585 148.86C150.778 148.004 150.829 147.467 149.752 146.458C148.366 145.154 146.84 144.03 145.237 142.982C144.48 142.497 144.082 141.82 143.967 140.938C143.903 140.452 144.082 140.248 144.583 140.35C145.173 140.465 145.75 140.593 146.353 140.67C146.75 140.721 146.917 140.951 146.93 141.308C147.02 142.969 148.2 143.889 149.367 144.809C149.777 145.129 149.995 145.001 150.098 144.388C150.265 143.34 150.418 142.28 150.726 141.257C150.893 140.721 151.098 140.21 151.406 139.75C152.381 138.229 154.459 138.293 155.369 139.865C155.472 140.043 155.575 140.248 155.703 140.401C155.87 140.606 156.101 140.746 156.383 140.644C156.665 140.542 156.819 140.312 156.883 140.031C156.96 139.737 156.819 139.545 156.562 139.405C155.626 138.894 155.023 138.14 154.792 137.092C154.42 135.418 155.587 134.179 157.268 134.511C158.153 134.69 158.909 135.086 159.487 135.814C159.948 136.402 160.231 136.44 160.821 135.993C161.385 135.559 161.808 134.984 162.103 134.345C162.449 133.604 162.693 132.837 162.86 132.045C162.975 131.483 162.821 131.342 162.257 131.508C161.385 131.751 160.897 132.339 160.833 133.22C160.795 133.757 160.577 133.885 160.077 133.642C159.756 133.489 159.512 133.259 159.371 132.926C159.025 132.134 159.038 131.317 159.23 130.486C159.294 130.192 159.538 130.026 159.769 129.873C160.397 129.464 161.064 129.132 161.783 128.914C162.565 128.672 163.27 128.339 163.835 127.688C164.438 126.998 164.874 127.1 165.297 127.905C165.515 128.327 165.592 128.799 165.72 129.247C165.836 129.656 166.066 129.77 166.438 129.604C167.939 128.94 168.914 127.803 169.311 126.218C169.44 125.695 169.17 125.209 168.593 125.017C168.375 124.941 168.131 124.915 167.901 124.864C166.58 124.583 166.002 123.931 165.848 122.615C165.797 122.219 165.964 122.091 166.31 122.155C168.273 122.577 170.081 123.305 171.492 124.775C172.39 125.72 172.428 127.036 171.736 128.148C170.889 129.489 169.773 130.614 168.568 131.649C168.055 132.096 167.477 132.3 166.913 132.211ZM151.701 144.298C151.701 144.579 151.688 144.848 151.701 145.129C151.727 145.359 151.598 145.691 151.932 145.781C152.214 145.857 152.445 145.678 152.586 145.474C153.074 144.758 153.676 144.107 154.048 143.314C154.228 142.918 154.305 142.51 154.343 142.088C154.369 141.653 154.202 141.423 153.728 141.411C152.766 141.398 152.15 141.82 151.868 142.727C151.688 143.238 151.701 143.774 151.701 144.298ZM157.191 138.05C157.883 138.063 158.358 137.922 158.717 137.501C159.089 137.066 158.999 136.67 158.473 136.44C157.96 136.21 157.46 136.312 156.998 136.555C156.614 136.747 156.229 137.015 156.357 137.539C156.498 138.012 156.934 138.037 157.191 138.05Z" fill="#383838"/>
<path d="M168.542 92.9334C169.696 92.959 170.928 93.2273 172.095 93.8406C172.839 94.2367 172.954 94.9906 172.313 95.5528C172.005 95.8211 172.056 96 172.223 96.2938C173.198 97.9166 172.826 99.0282 171.082 99.8204C169.901 100.357 169.876 100.536 170.953 101.341C171.428 101.699 171.864 102.108 172.274 102.542C173.134 103.462 173.236 104.42 172.621 105.532C172.172 106.337 172.159 106.375 172.98 106.835C174.237 107.551 174.904 108.598 174.993 110.029C175.019 110.413 174.981 110.732 174.66 111.001C174.301 111.294 174.083 111.691 174.019 112.151C173.878 113.186 173.236 113.76 172.3 114.093C171.659 114.323 171.005 114.54 170.415 114.885C170.017 115.115 169.632 115.396 169.683 115.92C169.735 116.405 170.132 116.623 170.543 116.776C171.017 116.968 171.53 117.044 172.043 117.083C172.467 117.108 172.89 117.185 173.3 117.325C173.826 117.517 174.07 117.9 174.032 118.463C173.993 119.038 173.621 119.28 173.121 119.37C172.505 119.485 171.89 119.446 171.274 119.319C169.825 119.012 168.503 118.45 167.375 117.491C166.464 116.712 166.336 115.818 167.016 114.834C167.67 113.875 168.503 113.071 169.568 112.559C169.722 112.483 169.876 112.406 170.017 112.317C170.184 112.214 170.338 112.074 170.338 111.869C170.325 111.614 170.094 111.601 169.914 111.55C169.478 111.422 169.055 111.282 168.683 111.039C168.003 110.604 167.811 110.119 168.042 109.352C168.144 109.007 168.285 108.675 168.414 108.33C168.555 107.947 168.465 107.781 168.029 107.781C167.144 107.781 166.285 107.883 165.412 107.985C163.437 108.241 162.398 107.742 161.436 106.03C160.5 104.382 159.307 102.887 158.473 101.188C158.255 100.74 157.627 100.28 158.242 99.7437C158.717 99.3221 160 99.5648 160.41 100.089C160.987 100.83 161.5 101.609 161.962 102.427C162.193 102.836 162.449 103.232 162.629 103.666C163.258 105.149 164.425 105.698 165.964 105.57C166.682 105.506 167.413 105.468 168.131 105.366C169.311 105.212 169.619 104.919 169.696 103.756C169.748 102.976 169.568 102.235 168.965 101.648C168.503 101.2 167.978 101.136 167.452 101.481C166.721 101.967 166.182 102.58 166.361 103.539C166.451 103.999 166.233 104.114 165.836 104.062C165.579 104.024 165.323 103.986 165.079 103.922C163.937 103.59 163.629 102.9 164.143 101.839C164.438 101.239 164.899 100.753 165.323 100.255C165.669 99.846 166.015 99.4371 166.259 98.9643C166.515 98.4404 166.913 98.3382 167.426 98.4277C167.683 98.4788 167.926 98.5427 168.17 98.5938C168.888 98.7471 169.363 98.466 169.465 97.8271C169.594 96.9838 169.158 96.2044 168.478 96.1661C167.529 96.1277 166.618 95.8978 165.746 95.54C165.361 95.3867 164.989 95.1822 164.963 94.7095C164.938 94.1984 165.169 93.8023 165.618 93.5595C166.477 93.0995 167.413 92.9334 168.542 92.9334ZM172.646 108.701C171.761 108.739 170.928 108.931 170.132 109.237C169.94 109.314 169.671 109.391 169.722 109.659C169.773 109.915 170.03 109.914 170.248 109.927C171.107 109.94 171.954 109.761 172.762 109.48C173.044 109.378 173.518 109.301 173.467 108.956C173.403 108.547 172.928 108.765 172.646 108.701ZM169.029 94.1473C168.503 94.1217 167.99 94.1473 167.503 94.3134C167.388 94.3517 167.246 94.4028 167.246 94.5561C167.246 94.6711 167.375 94.7222 167.465 94.7478C168.439 95.0544 169.427 95.0289 170.415 94.7733C170.504 94.7478 170.62 94.6583 170.633 94.5689C170.658 94.4156 170.504 94.3772 170.389 94.3389C169.94 94.1728 169.491 94.0961 169.029 94.1473Z" fill="#383838"/>
<path d="M89.3914 149.218C89.4299 149.959 89.1862 150.687 88.7501 151.377C88.0575 152.489 88.2627 153.013 89.5966 153.69C90.597 154.188 91.3923 153.894 91.7899 152.821C92.0464 152.144 92.1618 151.415 92.1362 150.687C92.1105 149.882 92.3671 149.192 92.8801 148.579C93.0597 148.362 93.2392 148.247 93.5214 148.247C95.6121 148.221 97.7028 148.336 99.7678 148.707C100.704 148.873 100.781 149.077 100.345 149.895C99.896 150.738 99.7293 150.815 98.6391 150.7C97.5617 150.585 96.4971 150.329 95.394 150.329C94.291 150.329 94.0088 150.521 93.7266 151.594C93.4958 152.501 93.3419 153.421 93.3419 154.367C93.3419 154.763 93.3932 155.146 93.6753 155.44C94.9323 156.769 96.2791 157.97 98.1517 158.392C98.7032 158.52 99.2419 158.532 99.7806 158.315C100.153 158.162 100.294 157.906 100.088 157.561C99.6139 156.756 99.306 155.76 98.1132 155.709C97.8823 155.696 97.613 155.619 97.5745 155.338C97.536 155.082 97.7284 154.904 97.908 154.75C98.8058 153.996 100.294 154.175 100.986 155.108C101.91 156.386 102.846 157.663 103.757 158.941C103.898 159.133 104.026 159.337 104.116 159.542C104.385 160.181 104.103 160.704 103.41 160.807C103.154 160.845 102.885 160.871 102.641 160.819C100.986 160.462 99.3189 160.615 97.6643 160.577C95.9712 160.538 94.4577 159.925 93.0468 159.031C92.2645 158.532 91.8027 157.74 91.4949 156.884C91.3025 156.347 91.0075 156.117 90.4431 156.232C89.5581 156.411 88.7629 156.194 87.9677 155.811C86.9159 155.3 86.7748 155.338 85.9668 156.181C85.1716 157.025 84.2865 157.753 83.3374 158.405C82.337 159.082 81.7213 159.056 80.7722 158.302C80.3617 157.97 79.8872 157.689 79.5665 157.255C79.0791 156.616 79.2458 156.194 80.0282 156.13C80.8748 156.066 81.7341 156.054 82.5935 156.041C83.6709 156.015 84.4533 155.351 85.3126 154.852C85.6076 154.674 85.582 154.405 85.3126 154.162C84.992 153.856 84.6457 153.562 84.3507 153.217C83.6965 152.463 83.5939 151.735 84.0813 150.866C84.8124 149.588 85.9411 148.719 87.2494 148.08C87.4674 147.965 87.7368 147.927 87.9933 147.914C89.199 147.825 89.3914 148.004 89.3914 149.218Z" fill="#383838"/>
<path d="M73.4356 145.998C73.4484 144.631 73.4612 144.605 72.294 144.222C68.7284 143.072 66.3299 140.682 64.8548 137.309C64.5727 136.658 64.4187 135.968 64.3803 135.265C64.3418 134.524 64.5214 133.834 65.0729 133.284C66.1888 132.173 67.4457 131.355 69.0234 131.074C69.344 131.023 69.7288 130.972 69.8571 131.329C69.9853 131.674 69.7288 131.955 69.421 132.083C67.2405 133.042 67.2277 134.907 68.0229 136.773C69.2799 139.724 71.6271 141.436 74.6284 142.369C75.321 142.586 76.0393 142.727 76.7319 142.931C77.0397 143.021 77.463 143.008 77.5271 143.442C77.6041 143.915 77.386 144.311 76.9756 144.503C76.3086 144.822 76.3343 145.346 76.501 145.908C76.7191 146.688 77.3219 146.994 78.0915 146.726C78.7713 146.483 79.4382 146.215 80.1822 146.151C80.6439 146.113 81.08 146.138 81.5161 146.215C82.6063 146.407 83.1963 147.135 83.1707 148.234C83.1322 150.342 81.0287 152.834 78.9508 153.23C77.3347 153.536 76.283 152.744 76.1163 151.121C76.0906 150.866 76.0136 150.61 76.0521 150.355C76.1932 149.371 75.693 148.847 74.8721 148.425C73.846 147.914 73.2175 147.097 73.4356 145.998ZM78.9124 151.185C78.9637 151.173 79.0406 151.173 79.0919 151.134C80.118 150.444 80.9389 149.575 81.4135 148.413C81.452 148.31 81.4776 148.195 81.3878 148.119C81.2724 148.017 81.1313 148.042 81.0287 148.119C80.0026 148.822 79.2458 149.754 78.7328 150.879C78.6558 151.032 78.6815 151.173 78.9124 151.185Z" fill="#383838"/>
<path d="M133.95 147.148C133.95 146.662 133.95 146.228 134.168 145.844C134.322 145.563 134.437 145.244 134.835 145.244C135.245 145.244 135.502 145.487 135.643 145.857C136.104 147.02 136.566 148.195 137.028 149.358C137.374 150.227 137.721 151.096 138.246 151.888C138.426 152.169 138.631 152.45 138.875 152.693C139.786 153.6 141.235 153.255 141.684 152.054C141.812 151.709 141.658 151.377 141.568 151.058C141.402 150.483 141.235 149.92 141.171 149.32C140.978 147.62 142.12 146.534 143.826 146.777C144.878 146.931 145.621 147.544 146.237 148.336C146.968 149.269 147.468 150.329 147.687 151.505C147.738 151.773 147.751 152.054 147.738 152.335C147.674 153.306 147.212 153.766 146.25 153.869C145.891 153.907 145.532 153.907 145.16 153.881C143.492 153.715 143.492 153.728 142.825 155.236C142.146 156.756 140.286 157.114 138.913 155.99C137.49 154.827 136.579 153.294 135.758 151.696C135.245 150.713 134.771 149.716 134.283 148.719C134.039 148.183 133.898 147.646 133.95 147.148ZM143.544 148.924C143.338 148.911 143.249 148.988 143.338 149.192C143.8 150.253 144.531 151.096 145.48 151.735C145.724 151.901 145.891 151.773 145.852 151.466C145.788 150.917 144.121 149.064 143.595 148.949C143.582 148.937 143.569 148.924 143.544 148.924Z" fill="#383838"/>
<path d="M123.406 165.445C123.201 165.407 122.906 165.56 122.765 165.355C122.611 165.113 122.855 164.883 122.97 164.665C123.458 163.848 124.189 163.234 124.766 162.506C125.151 162.021 125.459 161.484 125.638 160.883C125.754 160.5 125.664 160.334 125.241 160.321C124.792 160.308 124.343 160.27 123.907 160.193C123.278 160.078 122.868 159.721 122.765 159.069C122.547 157.753 122.791 156.514 123.509 155.402C124.15 154.431 125.638 154.546 126.241 155.594C126.382 155.824 126.459 156.105 126.536 156.36C126.831 157.382 126.972 157.523 128.062 157.472C129.23 157.421 130.333 157.114 131.32 156.437C131.513 156.309 131.744 156.169 131.705 155.9C131.667 155.606 131.397 155.504 131.154 155.415C130.653 155.236 130.166 155.172 129.653 155.402C129.435 155.504 129.153 155.645 128.935 155.453C128.717 155.261 128.832 154.98 128.896 154.725C129.217 153.409 130.153 152.885 131.461 153.281C131.897 153.421 132.295 153.613 132.667 153.881C133.308 154.354 134.001 154.712 134.822 154.801C135.348 154.852 135.489 155.185 135.335 155.67C135.232 156.002 135.078 156.296 134.783 156.501C133.321 157.536 131.859 158.571 130.397 159.606C129.807 160.027 129.178 160.296 128.447 160.334C127.767 160.372 127.306 160.704 127.011 161.331C126.741 161.918 126.549 162.519 126.382 163.132C125.908 164.895 125.241 165.419 123.406 165.445ZM124.766 157.983C125.189 157.97 125.561 157.893 125.587 157.433C125.613 156.922 125.177 156.807 124.805 156.807C124.445 156.795 124.048 156.935 124.035 157.395C124.035 157.868 124.42 157.932 124.766 157.983Z" fill="#383838"/>
<path d="M120.367 155.479C120.405 153.984 120.328 152.501 120.136 151.019C120.059 150.444 120.059 149.869 120.444 149.371C120.662 149.09 120.944 148.885 121.316 148.937C121.662 148.988 121.765 149.269 121.893 149.55C122.188 150.24 122.291 150.917 121.944 151.645C121.726 152.105 121.701 152.629 121.713 153.153C121.739 155.555 121.739 157.97 121.329 160.347C121.085 161.803 120.726 163.222 119.815 164.435C118.776 165.815 116.968 166.352 115.339 165.764C114.326 165.394 113.889 164.487 113.569 163.605C112.722 161.318 112.889 159.005 113.748 156.743C113.774 156.68 113.8 156.628 113.838 156.577C113.954 156.411 114.031 156.13 114.287 156.181C114.544 156.232 114.505 156.513 114.518 156.718C114.531 157.51 114.531 158.29 114.518 159.082C114.479 161.177 115.942 161.893 117.737 161.433C119.533 160.973 120.277 159.938 120.379 157.842C120.392 157.05 120.367 156.258 120.367 155.479Z" fill="#383838"/>
<path d="M66.1246 118.156C64.842 118.194 63.5594 118.118 62.2896 118.271C61.4046 118.386 60.8146 118.769 60.4939 119.587C60.0707 120.711 59.9552 121.861 60.2502 123.037C60.34 123.407 60.5324 123.752 60.8274 124.008C61.4046 124.493 62.0844 124.302 62.2383 123.586C62.3666 122.986 62.3794 122.36 62.5076 121.759C62.6487 121.056 62.9053 120.929 63.4824 121.337C65.4962 122.743 67.0738 124.43 67.0353 127.1C67.0353 127.419 67.0225 127.739 67.1507 128.046C67.3688 128.557 67.1764 128.684 66.6762 128.633C65.8681 128.544 65.4577 128.109 65.4577 127.202C65.4577 126.372 65.5475 125.541 64.9831 124.813C64.7522 124.532 64.5214 124.251 64.252 124.008C63.9442 123.74 63.7133 123.816 63.585 124.2C63.4311 124.672 63.3542 125.145 63.3157 125.643C63.2772 126.129 63.0335 126.359 62.5205 126.321C61.8663 126.27 61.2379 126.155 60.6992 125.797C58.788 124.532 57.5054 122.845 57.313 120.507C57.2232 119.37 57.5696 118.284 58.5059 117.619C59.1344 117.159 59.9937 117.006 60.8146 116.968C63.0977 116.865 65.3807 116.789 67.6638 116.725C68.2281 116.712 68.831 116.725 69.3312 117.083C69.6005 117.274 69.8442 117.543 69.7416 117.888C69.6518 118.207 69.2799 118.156 69.0234 118.156C68.0486 118.169 67.0866 118.156 66.1246 118.156Z" fill="#383838"/>
<path d="M59.3011 103.781C59.2883 102.491 59.4678 101.239 59.75 99.9865C59.9937 98.8621 60.7376 98.0188 61.5713 97.2777C61.8022 97.0733 62.0844 96.9327 62.3794 96.92C63.4311 96.8944 64.4701 96.9966 65.509 97.1244C65.6372 97.1372 65.7783 97.1627 65.7912 97.3288C65.804 97.4822 65.6885 97.5588 65.5603 97.5972C65.4192 97.6483 65.2781 97.7122 65.137 97.7377C63.9442 97.9294 63.3157 98.696 62.8924 99.7693C62.2768 101.366 61.9818 103.002 61.9561 104.701C61.9176 106.58 61.9176 108.445 62.3281 110.298C62.5461 111.256 62.9181 112.074 63.9057 112.457C64.1109 112.534 64.252 112.7 64.329 112.917C64.4572 113.326 64.3931 113.594 63.88 113.556C63.5722 113.531 63.29 113.441 63.0463 113.275C61.8407 112.406 60.8018 111.422 60.3272 109.927C59.6859 107.921 59.3396 105.89 59.3011 103.781Z" fill="#383838"/>
<path d="M162.988 118.999C163.347 119.063 163.873 118.808 164.13 119.331C164.463 119.983 164.707 120.686 164.502 121.414C164.386 121.823 163.924 121.81 163.604 121.951C163.219 122.117 162.68 121.989 162.398 122.296C162.116 122.615 162.449 123.062 162.437 123.458C162.411 124.276 162.039 124.608 161.051 124.672C160.038 124.736 159.474 124.391 159.371 123.612C159.333 123.344 159.346 123.062 159.346 122.781C159.371 121.695 159.499 121.555 160.564 121.401C160.756 121.376 160.936 121.312 161.128 121.312C161.552 121.299 161.667 121.069 161.654 120.686C161.641 120.392 161.68 120.085 161.654 119.791C161.603 119.191 161.834 118.91 162.462 118.986C162.629 119.012 162.783 118.999 162.988 118.999Z" fill="#383838"/>
<path d="M75.2312 137.386C76.5652 137.386 76.5652 137.386 76.5652 138.702C76.5652 138.804 76.5652 138.919 76.5652 139.021C76.5139 140.248 76.206 140.542 74.9747 140.516C73.9743 140.491 73.5125 140.018 73.6408 139.021C73.7177 138.446 73.551 138.229 72.9482 138.191C71.2679 138.076 71.114 137.871 71.2551 136.159C71.2936 135.75 71.3064 135.29 71.8066 135.188C72.4223 135.06 73.0636 134.83 73.6664 135.201C73.9486 135.38 73.9614 135.712 73.9486 136.006C73.9101 137.386 73.9101 137.386 75.2312 137.386Z" fill="#383838"/>
<path d="M106.283 159.861C106.296 158.379 108.156 156.015 109.593 155.645C109.849 155.581 110.17 155.44 110.349 155.747C110.516 156.028 110.388 156.335 110.183 156.565C109.977 156.807 109.721 157.012 109.529 157.255C108.797 158.136 108.785 158.302 109.323 159.312C109.605 159.848 109.516 160.577 109.105 161.037C108.656 161.535 107.951 161.688 107.297 161.42C106.643 161.164 106.271 160.589 106.283 159.861Z" fill="#383838"/>
<path d="M60.7505 128.365C61.225 128.429 61.7124 128.467 61.9433 128.966C62.1357 129.413 61.9561 129.822 61.6355 130.116C61.1737 130.537 61.3533 130.844 61.7509 131.15C61.9048 131.265 62.0844 131.342 62.2511 131.432C62.777 131.725 62.8411 132.109 62.4563 132.569C62.3024 132.748 62.1229 132.901 61.9818 133.08C61.6355 133.514 61.2635 133.783 60.6607 133.501C60.0835 133.233 59.6474 132.671 59.6474 132.147C59.6474 131.904 59.8013 131.764 59.9552 131.623C60.3144 131.291 60.2887 130.984 59.8911 130.678C59.3524 130.256 59.1472 129.63 59.3909 129.106C59.6474 128.531 60.1861 128.429 60.7505 128.365Z" fill="#383838"/>
<path d="M55.915 102.913C55.9663 102.925 56.0689 102.925 56.1715 102.951C57.5567 103.245 57.8261 103.884 57.0437 105.046C56.9795 105.136 56.9282 105.225 56.8641 105.302C56.2485 106.094 55.7226 106.311 55.0941 106.017C54.3373 105.672 53.8756 104.906 54.0295 104.241C54.2219 103.5 55.0428 102.9 55.915 102.913Z" fill="#383838"/>
<path d="M55.7226 125.746C54.9402 125.746 54.3245 125.375 54.1321 124.877C53.9397 124.366 54.1963 123.599 54.6965 123.165C55.1967 122.73 55.7354 122.743 56.2869 123.037C57.2232 123.535 57.3259 123.919 56.6974 124.8C56.4152 125.209 56.1587 125.669 55.7226 125.746Z" fill="#383838"/>
<path d="M68.831 123.139C68.2666 123.19 67.8946 122.794 67.651 122.27C67.3944 121.734 67.6125 121.286 67.9973 120.903C68.9079 120.009 69.8186 120.098 70.5497 121.146C70.6266 121.261 70.6779 121.363 70.6779 121.491C70.6395 122.079 69.5236 123.139 68.831 123.139Z" fill="#383838"/>
<path d="M58.0826 132.837C57.5952 132.748 57.095 132.556 56.8128 132.058C56.5819 131.649 56.6461 131.227 56.9667 130.882C57.3643 130.448 57.7491 129.937 58.4674 130.115C58.8907 130.218 59.237 130.473 59.5576 130.767C59.6731 130.869 59.7244 131.01 59.7372 131.163C59.7244 131.713 58.6726 132.824 58.0826 132.837Z" fill="#383838"/>
<path d="M149.867 136.9C150.778 136.913 151.098 137.296 151.073 138.331C151.06 138.945 150.649 139.328 150.008 139.341C149.226 139.341 148.854 138.919 148.854 138.012C148.854 137.028 148.969 136.9 149.867 136.9Z" fill="#383838"/>
<path d="M152.689 133.22C152.702 132.377 152.791 132.3 153.728 132.3C154.33 132.3 154.997 133.118 154.997 133.821C154.997 134.332 154.561 134.626 153.843 134.626C153.035 134.613 152.676 134.179 152.689 133.22Z" fill="#383838"/>
<path d="M113.659 126.883C111.35 126.781 109.054 126.678 106.745 126.589C106.194 126.563 106.091 126.321 106.245 125.848C106.335 125.592 106.476 125.375 106.707 125.26C107.63 124.775 107.874 123.97 107.823 123.011C107.797 122.398 107.81 121.785 107.887 121.159C107.964 120.532 108.297 120.264 108.913 120.277C109.554 120.277 110.195 120.264 110.837 120.277C111.209 120.29 111.388 120.136 111.376 119.753C111.363 119.076 111.376 118.386 111.376 117.709C111.376 117.159 111.093 116.891 110.542 116.891C109.221 116.891 107.887 116.904 106.566 116.878C106.065 116.865 105.924 117.185 105.783 117.568C104.937 119.842 104.077 122.117 103.244 124.391C103.077 124.864 102.82 125.068 102.307 125.056C101.05 125.03 99.7806 125.132 98.5236 124.966C97.7797 124.864 97.6771 124.762 97.8182 124.021C98.0876 122.577 98.5236 121.171 98.9854 119.779C100.717 114.54 102.384 109.288 103.68 103.922C103.923 102.887 104.398 102.478 105.475 102.427C106.373 102.389 107.271 102.414 108.169 102.465C109.439 102.555 110.683 102.516 111.94 102.35C112.44 102.286 112.709 102.095 112.684 101.545C112.658 100.97 112.299 100.804 111.837 100.817C110.67 100.843 109.541 100.574 108.438 100.268C107.592 100.038 106.784 99.7054 106.014 99.271C103.564 97.8782 102.897 96.345 103.09 93.4062C103.128 92.7929 103.269 92.1923 103.398 91.579C103.462 91.2851 103.577 90.9785 103.936 90.9529C104.27 90.9401 104.321 91.2724 104.385 91.4896C104.924 93.2017 106.065 94.3006 107.746 94.9139C108.964 95.3611 110.183 95.8466 111.247 96.6261C111.568 96.8688 111.85 97.1627 112.196 97.3799C112.543 97.5971 112.825 97.546 112.825 97.0477C112.825 95.7444 112.812 94.4539 112.812 93.1506C112.812 92.7801 112.645 92.614 112.312 92.5245C111.568 92.3201 110.824 92.1157 110.131 91.7707C108.733 91.0807 107.784 90.0074 107.348 88.5252C107.22 88.0908 106.95 87.8352 106.578 87.6436C105.039 86.8131 103.782 85.727 103.013 84.1043C102.436 82.8776 102.218 81.6382 102.538 80.3222C103.103 77.8945 104.411 76.0545 106.797 75.0962C107.104 74.9685 107.284 74.7768 107.412 74.4957C107.592 74.0868 107.771 73.6779 107.951 73.2691C109.182 70.5603 111.376 69.2442 114.274 69.2314C116.878 69.2187 118.93 70.3814 120.123 72.7835C120.598 73.7291 121.252 74.3679 122.188 74.9301C125.292 76.7573 126.267 78.7633 125.536 82.3665C125.369 83.1971 124.958 83.9254 124.368 84.5387C123.496 85.4459 122.56 86.302 121.406 86.8386C120.687 87.1708 120.482 87.8736 120.187 88.4997C119.494 89.9691 118.456 91.119 117.019 91.8984C116.403 92.2307 115.736 92.3712 115.069 92.5118C114.659 92.6012 114.505 92.8056 114.505 93.2145C114.518 94.39 114.492 95.5528 114.505 96.7283C114.505 97.316 114.646 97.3799 115.134 97.0733C115.313 96.9583 115.506 96.8433 115.659 96.7155C116.878 95.655 118.327 95.0672 119.879 94.6711C121.585 94.2367 122.778 93.189 123.291 91.4512C123.381 91.1701 123.419 90.6974 123.778 90.7101C124.138 90.7229 124.202 91.1829 124.292 91.5023C124.958 93.815 123.83 96.9966 121.829 98.6193C120.046 100.076 117.943 100.6 115.724 100.817C115.454 100.843 115.172 100.881 114.903 100.932C114.441 101.021 114.364 101.354 114.377 101.75C114.39 102.171 114.531 102.453 114.992 102.478C115.313 102.504 115.634 102.529 115.954 102.542C118.353 102.58 120.726 102.708 123.111 102.913C126.177 103.181 127.921 105.8 128.024 107.896C128.101 109.621 127.434 111.154 126.408 112.496C125.561 113.607 124.433 114.438 123.291 115.23C122.432 115.818 121.406 116.022 120.418 116.29C118.366 116.853 116.275 117.146 114.146 117.044C113.53 117.019 113.287 117.287 113.261 117.849C113.248 118.079 113.248 118.322 113.248 118.552C113.248 120.315 113.582 120.609 115.352 120.43C115.518 120.417 115.685 120.366 115.852 120.341C116.442 120.264 116.788 120.481 116.878 121.095C116.993 121.772 116.929 122.449 116.955 123.139C116.993 124.008 117.096 124.838 117.878 125.413C118.019 125.528 118.122 125.707 118.212 125.873C118.417 126.295 118.327 126.551 117.814 126.64C116.442 126.832 115.057 126.87 113.659 126.883ZM114.056 112.087C115.39 112.036 117.506 112.163 119.623 111.984C121.226 111.844 122.945 110.426 123.265 108.867C123.445 107.96 122.881 107.103 121.97 106.912C121.021 106.72 120.059 106.695 119.11 106.682C115.967 106.643 112.838 106.592 109.695 106.758C109.221 106.784 108.951 106.963 108.772 107.385C108.233 108.598 107.759 109.825 107.387 111.09C107.13 111.959 107.233 112.087 108.169 112.087C109.862 112.099 111.568 112.087 114.056 112.087ZM118.238 84.6537C119.828 84.6537 121.611 83.1715 121.855 81.9193C121.931 81.5232 121.688 81.4977 121.406 81.4977C120.431 81.4977 119.443 81.4466 118.468 81.5105C117.301 81.5871 116.121 81.5616 114.967 81.8299C114.569 81.9193 114.249 82.111 114.633 82.5071C115.711 83.6315 116.955 84.5004 118.238 84.6537ZM108.849 79.7983C108.849 79.7855 108.849 79.7855 108.849 79.7727C109.682 79.7727 110.516 79.7855 111.337 79.76C111.683 79.7472 112.158 79.9516 112.337 79.5811C112.517 79.1978 112.196 78.8272 112.004 78.4695C111.978 78.4311 111.953 78.3928 111.927 78.3672C111.055 77.2812 109.952 76.6423 108.528 76.9106C107.156 77.1662 106.207 78.0989 105.463 79.2233C105.206 79.6066 105.398 79.7983 105.847 79.7983C106.848 79.7983 107.848 79.7983 108.849 79.7983ZM112.427 85.727H112.44C112.44 84.7304 112.453 83.7337 112.44 82.7371C112.427 82.111 112.273 82.0343 111.696 82.2771C110.452 82.8265 109.426 84.1937 109.554 85.4076C109.708 86.9792 110.452 88.2697 111.837 89.113C112.235 89.3558 112.427 89.1513 112.427 88.7169C112.427 87.7203 112.427 86.7236 112.427 85.727ZM115.172 75.4796C115.172 76.4379 115.185 77.3834 115.172 78.3417C115.159 78.8656 115.39 78.9422 115.801 78.6867C116.57 78.2139 117.109 77.5239 117.506 76.7445C118.494 74.8279 117.699 72.7708 115.813 72.1574C115.364 72.0169 115.172 72.1191 115.185 72.6047C115.172 73.563 115.172 74.5213 115.172 75.4796Z" fill="#383838"/>
<path d="M91.9566 107.18C89.6351 107.206 87.3007 107.065 84.9792 107.295C84.4405 107.346 84.1968 107.525 84.2224 108.075C84.2481 108.624 84.1839 109.186 84.325 109.723C84.6713 111.167 85.6718 111.959 87.0314 112.355C88.8655 112.879 90.751 112.904 92.6236 112.828C94.1242 112.764 95.6121 112.764 97.1128 112.777C97.9465 112.789 98.1773 113.019 98.203 113.85C98.2286 114.77 98.1132 115.677 97.8438 116.559C97.7541 116.865 97.5617 117.019 97.241 117.006C93.5727 116.942 89.8788 117.3 86.2233 116.84C82.4139 116.367 79.7974 114.195 78.5917 110.528C76.796 105.085 79.2971 98.2744 84.1711 95.2333C85.9283 94.1345 87.9035 93.6362 89.9301 93.4445C93.3803 93.1251 96.8562 93.3679 100.306 93.3167C100.794 93.304 100.935 93.5467 100.922 93.9939C100.896 94.85 100.717 95.6806 100.486 96.4983C100.332 97.0477 99.9602 97.3161 99.4086 97.3033C97.7669 97.2905 96.1123 97.2649 94.4706 97.2394C92.5723 97.2138 90.6483 97.1883 88.8527 97.9549C87.0185 98.7343 85.7744 100.063 85.3511 102.069C85.21 102.734 85.3255 102.887 85.9924 102.887C88.1088 102.9 90.2251 102.887 92.3414 102.913C94.4192 102.925 96.4843 102.989 98.5621 102.989C99.088 102.989 99.2932 103.168 99.2676 103.692C99.2163 104.65 99.0239 105.583 98.7417 106.503C98.5878 106.976 98.3184 107.167 97.8054 107.155C95.843 107.155 93.9062 107.18 91.9566 107.18Z" fill="#383838"/>
<path d="M129.922 117.019C128.935 117.057 127.896 116.98 126.857 116.789C126.382 116.699 126.203 116.495 126.369 115.997C126.78 114.719 127.254 113.467 127.767 112.227C127.947 111.806 128.203 111.588 128.678 111.576C130.923 111.537 133.052 110.86 135.207 110.387C137.515 109.889 139.503 108.828 140.709 106.682C142.03 104.331 141.389 101.66 139.106 100.204C137.644 99.271 136.015 98.7854 134.283 98.6193C133.514 98.5427 132.77 98.4277 131.987 98.5938C131.628 98.6705 131.384 98.811 131.282 99.1432C130.73 100.983 129.691 102.619 128.96 104.382C128.742 104.906 128.229 105.059 127.87 104.561C127.1 103.488 126.049 102.874 124.907 102.299C124.33 102.005 124.291 101.43 124.535 100.843C125.087 99.5265 125.651 98.2105 126.203 96.9072C126.664 95.8339 127.113 94.7478 127.665 93.7128C127.87 93.3295 128.139 93.1123 128.575 93.0101C130.551 92.5373 132.5 92.5373 134.476 93.0356C136.258 93.4956 138.092 93.6745 139.824 94.3517C142.389 95.3739 144.506 97.0477 145.75 99.4754C147.648 103.181 147.481 106.912 145.07 110.426C143.249 113.083 140.645 114.693 137.631 115.703C135.168 116.533 132.629 117.095 129.922 117.019Z" fill="#383838"/>
<path d="M112.119 131.917C114.364 131.917 116.596 131.917 118.84 131.917C119.623 131.917 119.687 131.968 119.648 132.76C119.507 135.29 117.455 139.098 113.556 139.635C111.375 139.941 109.336 139.622 107.656 138.178C106.104 136.836 104.988 135.137 104.629 133.054C104.449 132.019 104.552 131.904 105.578 131.904C107.759 131.904 109.939 131.904 112.119 131.917C112.119 131.904 112.119 131.904 112.119 131.917Z" fill="#383838"/>
<path d="M111.991 130.422C109.913 130.422 107.848 130.435 105.783 130.422C105.283 130.422 104.642 130.601 104.488 129.847C104.347 129.183 104.924 128.237 105.54 128.046C105.719 127.994 105.912 127.969 106.104 127.969C109.259 127.918 112.427 127.867 115.583 127.854C116.519 127.854 117.455 127.905 118.391 128.007C119.392 128.109 119.841 128.71 119.789 129.707C119.777 130.09 119.61 130.307 119.225 130.333C118.84 130.358 118.456 130.422 118.084 130.422C116.057 130.422 114.018 130.422 111.991 130.422Z" fill="#383838"/>
<rect x="0.5" y="0.5" width="229" height="229" rx="9.5" stroke="black" stroke-opacity="0.04"/>
</g>
<defs>
<clipPath id="clip0_82_2670">
<rect width="230" height="230" rx="10" fill="white"/>
</clipPath>
</defs>
</svg>
