<svg width="230" height="230" viewBox="0 0 230 230" fill="none" xmlns="http://www.w3.org/2000/svg">
<g clip-path="url(#clip0_82_2532)">
<rect width="230" height="230" rx="10" fill="#F5F5F7"/>
<path d="M76.1731 137.14C76.1731 141.491 72.9457 144.168 67.7579 144.168H63.3113V149.882H59.6058V130.087H67.7579C72.9696 130.087 76.1731 132.765 76.1731 137.14ZM72.4675 137.14C72.4675 134.654 70.7941 133.195 67.5906 133.195H63.2874V141.037H67.5667C70.818 141.06 72.4675 139.626 72.4675 137.14Z" fill="#383838"/>
<path d="M81.1284 142.709V133.41H84.1885V142.59C84.1885 145.984 85.7185 147.443 88.3721 147.443C91.0497 147.443 92.5558 145.984 92.5558 142.59V133.41H95.568V142.709C95.568 147.515 92.8666 150.12 88.3721 150.12C83.8299 150.096 81.1284 147.491 81.1284 142.709Z" fill="#383838"/>
<path d="M114.943 133.384V149.856H112.409L103.325 138.715V149.856H100.288V133.384H102.799L111.883 144.525V133.384H114.943Z" fill="#383838"/>
<path d="M119.449 147.728L121.195 145.624C122.079 146.844 123.179 147.489 124.47 147.489C126.167 147.489 127.028 146.461 127.028 144.453V135.942H121.171V133.384H130.088V144.31C130.088 148.182 128.151 150.095 124.542 150.095C122.438 150.095 120.573 149.258 119.449 147.728Z" fill="#383838"/>
<path d="M148.091 146.056H139.843L138.217 149.881H135.061L142.473 133.41H145.485L152.92 149.881H149.716L148.091 146.056ZM147.063 143.666L143.955 136.47L140.847 143.666H147.063Z" fill="#383838"/>
<path d="M172.402 145.385C172.402 148.206 170.202 149.856 165.947 149.856H157.771V133.384H165.493C169.437 133.384 171.565 135.058 171.565 137.664C171.565 139.361 170.704 140.604 169.461 141.273C171.206 141.871 172.402 143.258 172.402 145.385ZM160.831 135.799V140.341H165.158C167.262 140.341 168.481 139.576 168.481 138.07C168.481 136.54 167.286 135.799 165.158 135.799H160.831ZM169.342 145.098C169.342 143.449 168.099 142.732 165.78 142.732H160.855V147.489H165.78C168.099 147.465 169.342 146.748 169.342 145.098Z" fill="#383838"/>
<path d="M137.493 98.4314C138.186 97.8098 139.095 97.4751 140.218 97.4751C141.342 97.4751 142.25 97.7859 142.944 98.4314C143.637 99.0529 143.972 99.8418 143.972 100.798C143.972 101.73 143.613 102.495 142.944 103.141C142.25 103.763 141.342 104.097 140.218 104.097C139.095 104.097 138.186 103.786 137.493 103.141C136.8 102.519 136.465 101.73 136.465 100.798C136.465 99.8418 136.8 99.0529 137.493 98.4314ZM143.35 106.56V127.095H137.063V106.56H143.35Z" fill="#383838"/>
<path d="M153.247 121.836H162.738V127.095H146.362V122.123L155.184 111.795H146.506V106.56H162.38V111.532L153.247 121.836Z" fill="#383838"/>
<path d="M119.683 112.658C119.683 116.124 117.58 117.845 113.348 117.845H108.376C104.168 120.379 99.4585 122.866 94.2707 125.017C94.1273 125.065 93.9599 125.137 93.8165 125.185V127.121H115.739C120.759 127.121 124.608 125.997 127.31 123.726C130.011 121.455 131.326 118.3 131.326 114.259C131.326 111.51 130.489 109.072 128.816 107.016C128.051 106.059 127.166 105.294 126.162 104.625C124.321 106.298 122.002 108.283 119.229 110.41C119.564 111.056 119.683 111.797 119.683 112.658Z" fill="#383838"/>
<path d="M105.22 107.253H113.276C113.348 107.253 113.42 107.277 113.491 107.277C117.436 104.002 121.118 100.344 124.488 96.2564L120.257 92.79L130.178 90.9492C129.939 87.6262 128.648 85.0204 126.305 83.1318C123.699 81.028 119.97 80 115.165 80H93.8401V119.183C97.8325 117.509 101.61 115.525 105.244 113.254V107.253H105.22ZM105.22 89.1323H112.559C116.599 89.1323 118.631 90.8297 118.631 94.2005C118.631 97.5713 116.671 99.2687 112.702 99.2687H105.244V89.1323H105.22Z" fill="#383838"/>
<path d="M130.489 92.1211L123.078 93.4838L126.234 96.0896L125.708 96.7112C115.571 109.095 104.024 116.291 93.864 120.474C90.0389 122.052 76.1731 125.256 70.8897 116.864L91.6407 104.05C91.3299 103.429 90.9235 102.664 90.6127 102.162C85.5206 93.8902 76.5317 91.9777 68.8099 96.7351C61.6618 101.134 59.1038 109.19 62.379 116.53L57 119.877C57 119.877 59.7254 122.363 64.6501 120.331C71.1527 130.802 87.4331 126.594 93.8879 123.917C116.504 114.569 130.226 99.0301 130.226 99.0301L132.784 101.086L133.645 91.5474L130.489 92.1211ZM68.3078 112.776C66.5148 108.545 67.8536 104.17 71.8699 101.708C75.934 99.1974 80.4763 100.01 83.3212 103.525L68.3078 112.776Z" fill="#383838"/>
<path d="M168.621 120.449C167.497 120.449 166.589 120.783 165.896 121.405C165.202 122.027 164.868 122.815 164.868 123.772C164.868 124.704 165.202 125.493 165.896 126.115C166.589 126.76 167.497 127.071 168.621 127.071C169.745 127.071 170.653 126.736 171.346 126.115C172.016 125.469 172.374 124.704 172.374 123.772C172.374 122.815 172.04 122.027 171.346 121.405C170.653 120.76 169.745 120.449 168.621 120.449Z" fill="#383838"/>
<rect x="0.5" y="0.5" width="229" height="229" rx="9.5" stroke="black" stroke-opacity="0.04"/>
</g>
<defs>
<clipPath id="clip0_82_2532">
<rect width="230" height="230" rx="10" fill="white"/>
</clipPath>
</defs>
</svg>
