<svg width="230" height="230" viewBox="0 0 230 230" fill="none" xmlns="http://www.w3.org/2000/svg">
<g clip-path="url(#clip0_82_2550)">
<rect width="230" height="230" rx="10" fill="#F5F5F7"/>
<g clip-path="url(#clip1_82_2550)">
<path d="M119.637 68.2762C119.666 68.478 119.694 68.6511 119.723 68.7953C120.069 70.122 120.387 71.4488 120.733 72.7755C121.31 75.0828 121.569 77.4479 121.54 79.8418C121.511 85.1198 121.511 90.398 121.511 95.6761C121.54 104.819 121.569 113.962 121.598 123.105C121.598 123.278 121.598 123.422 121.598 123.653C122.002 123.624 122.348 123.538 122.694 123.566C123.213 123.566 123.3 123.364 123.3 122.874C123.271 115.519 123.3 108.165 123.3 100.839C123.3 100.666 123.3 100.493 123.3 100.291C123.732 100.291 124.05 100.32 124.396 100.291C125.175 100.233 125.174 100.233 125.174 99.5121C125.174 89.2154 125.174 78.9188 125.174 68.6223C125.174 68.2762 125.174 67.9589 125.174 67.584C123.329 67.7571 121.511 68.0165 119.637 68.2762Z" fill="#383838"/>
<path d="M125.722 68.3335C125.693 68.3335 125.636 68.3335 125.607 68.3623C125.607 78.9185 125.607 89.4746 125.607 100.031C126.155 100.031 126.703 100.031 127.222 100.031C127.309 100.031 127.424 99.829 127.424 99.7137C127.395 98.9926 127.309 98.3004 127.309 97.5793C127.309 94.7239 127.337 91.8687 127.337 89.0133C127.337 84.3409 127.337 79.6973 127.337 75.0248C127.337 74.6787 127.366 74.3327 127.309 74.0153C127.136 73.2366 126.962 72.4579 126.732 71.708C126.443 70.5832 126.068 69.4584 125.722 68.3335Z" fill="#383838"/>
<path d="M104.292 87.2832C104.321 87.312 104.35 87.312 104.379 87.3409C104.581 87.0525 104.812 86.7929 105.013 86.5044C105.879 85.322 106.917 84.3412 108.1 83.5337C111.878 80.9668 116.147 79.6688 120.646 79.0632C120.761 79.0344 120.963 78.8613 120.963 78.746C120.963 77.9095 120.934 77.0443 120.905 76.2078C120.905 75.9482 120.761 75.8618 120.502 75.9194C118.8 76.2944 117.041 76.5828 115.368 77.0731C113.926 77.5058 112.541 78.1979 111.128 78.8036C108.1 80.1303 105.706 82.1492 104.35 85.293C104.292 85.4085 104.264 85.5239 104.264 85.6392C104.292 86.1872 104.292 86.7351 104.292 87.2832Z" fill="#383838"/>
<path d="M120.04 71.8811C119.81 71.0447 119.579 70.1506 119.348 69.2854C119.204 68.7374 119.146 68.6796 118.598 68.8239C117.762 69.0258 116.926 69.2276 116.118 69.5449C113.522 70.4967 110.926 71.535 108.706 73.2367C107.235 74.3616 105.908 75.6306 105.043 77.3035C104.466 78.4282 104.322 79.6108 104.322 80.9086C104.408 80.851 104.437 80.851 104.437 80.8221C104.552 80.6491 104.668 80.4761 104.754 80.303C105.36 79.0628 106.283 78.0532 107.35 77.188C109.686 75.2844 112.369 74.0731 115.224 73.2079C116.781 72.7176 118.396 72.3137 120.04 71.8811Z" fill="#383838"/>
<path d="M104.293 98.6757C104.322 98.7045 104.379 98.7045 104.408 98.7333C104.754 98.3871 105.1 98.0411 105.475 97.7239C106.023 97.2912 106.514 96.7721 107.119 96.4837C109.253 95.5029 111.388 94.4935 113.724 94.032C116.002 93.5993 118.252 93.0802 120.56 92.9937C120.848 92.9937 120.935 92.8784 120.935 92.6188C120.935 91.9554 120.906 91.292 120.935 90.6286C120.963 90.2249 120.848 90.0806 120.415 90.1095C119.29 90.2249 118.166 90.2826 117.07 90.4267C114.07 90.8594 111.186 91.7535 108.532 93.1956C107.004 94.032 105.562 95.0126 104.494 96.4547C104.408 96.5701 104.293 96.7143 104.293 96.8585C104.264 97.4642 104.293 98.0699 104.293 98.6757Z" fill="#383838"/>
<path d="M120.906 110.616C120.704 110.616 120.531 110.616 120.358 110.616C118.31 110.559 116.291 110.876 114.243 111.164C112.109 111.481 109.946 111.654 107.84 112.289C106.802 112.606 105.822 113.01 104.841 113.414C104.61 113.529 104.351 113.846 104.293 114.077C104.206 114.654 104.264 115.26 104.264 115.952C104.524 115.894 104.754 115.894 104.956 115.808C106.427 115.202 107.898 114.654 109.484 114.423C112.513 113.991 115.57 113.702 118.627 113.673C119.348 113.673 120.098 113.587 120.848 113.558C120.906 112.635 120.906 111.654 120.906 110.616Z" fill="#383838"/>
<path d="M104.293 104.444C104.899 104.011 105.447 103.55 106.023 103.175C107.696 102.166 109.542 101.646 111.417 101.156C114.07 100.435 116.81 100.204 119.55 100.031C120.012 100.002 120.473 99.9737 120.906 99.9449C120.906 98.9353 120.906 98.0123 120.906 97.0317C120.733 97.0317 120.589 97.0317 120.415 97.0317C117.156 97.0895 113.955 97.6951 110.869 98.6757C108.533 99.4256 106.283 100.291 104.552 102.137C104.437 102.252 104.322 102.396 104.322 102.541C104.264 103.175 104.293 103.81 104.293 104.444Z" fill="#383838"/>
<path d="M104.293 92.8203C104.495 92.6183 104.639 92.4741 104.783 92.3588C105.331 91.8396 105.85 91.2627 106.427 90.8012C108.936 88.8976 111.821 87.8017 114.849 87.0806C116.724 86.6192 118.598 86.2443 120.531 86.1288C120.675 86.1288 120.906 85.9847 120.906 85.8981C120.935 85.0329 120.935 84.1388 120.935 83.2446C120.704 83.2446 120.56 83.2734 120.415 83.2734C119.002 83.36 117.618 83.6484 116.233 83.9657C113.493 84.6002 110.869 85.4078 108.475 86.9077C106.715 88.0036 105.446 89.4745 104.35 91.1762C104.322 91.2339 104.322 91.2917 104.322 91.3493C104.293 91.7819 104.293 92.2433 104.293 92.8203Z" fill="#383838"/>
<path d="M120.906 103.953C120.646 103.953 120.444 103.953 120.242 103.953C118.166 103.925 116.089 104.184 114.041 104.559C112.484 104.847 110.926 105.165 109.398 105.511C107.581 105.915 106.081 106.953 104.523 107.876C104.437 107.934 104.322 108.049 104.293 108.135C104.264 108.828 104.293 109.52 104.293 110.299C104.466 110.212 104.552 110.154 104.668 110.126C105.446 109.722 106.196 109.289 107.033 108.943C110.638 107.501 114.416 106.953 118.252 106.809C119.146 106.78 120.012 106.751 120.906 106.722C120.906 105.77 120.906 104.905 120.906 103.953Z" fill="#383838"/>
<path d="M106.081 67.0933C106.11 67.1221 106.168 67.151 106.197 67.1798C106.312 66.978 106.427 66.8049 106.543 66.603C106.946 65.9108 107.35 65.1897 107.783 64.4975C108.994 62.6228 110.581 61.0942 112.282 59.6809C113.061 59.0464 113.926 58.4984 114.763 57.9216C115.051 57.7197 115.253 57.8062 115.397 58.1523C115.599 58.6138 115.83 59.0464 116.061 59.479C118.772 58.4407 121.54 57.9504 124.367 57.7485C124.367 56.6525 124.367 55.5853 124.367 54.5182C124.107 54.5182 123.848 54.4893 123.617 54.5182C123.069 54.5759 122.521 54.6047 121.973 54.7201C118.57 55.4123 115.397 56.6237 112.484 58.5272C111.302 59.306 110.032 60.027 109.081 61.0365C107.494 62.7093 106.86 64.959 106.081 67.0933Z" fill="#383838"/>
<path d="M112.311 116.154C112.368 118.865 112.426 121.432 112.484 124.028C113.522 124.085 114.503 124.143 115.512 124.172C115.512 123.883 115.512 123.711 115.512 123.537C115.512 121.893 115.512 120.278 115.512 118.634C115.512 117.423 115.512 117.423 114.387 116.99C113.782 116.731 113.118 116.471 112.311 116.154Z" fill="#383838"/>
<path d="M107.033 116.356C107.033 117.106 107.033 117.769 107.033 118.461C107.033 119.961 107.062 121.461 107.062 122.961C107.062 123.422 107.235 123.566 107.639 123.595C108.187 123.653 108.706 123.71 109.254 123.768C109.485 123.797 109.744 123.768 109.917 123.768C109.917 121.23 109.917 118.75 109.917 116.211C108.879 116.24 107.956 116.298 107.033 116.356Z" fill="#383838"/>
<path d="M106.485 116.298C105.389 116.384 104.408 116.471 103.427 116.557C103.399 116.644 103.37 116.702 103.37 116.73C103.37 118.692 103.37 120.653 103.341 122.614C103.341 122.931 103.543 122.96 103.745 122.989C104.12 123.047 104.466 123.105 104.841 123.162C105.389 123.249 105.937 123.306 106.456 123.364C106.485 120.999 106.485 118.692 106.485 116.298Z" fill="#383838"/>
<path d="M125.174 52.5283C125.145 52.5283 125.087 52.5572 125.058 52.5572C125.058 57.3161 125.058 62.075 125.058 66.8916C125.606 66.7187 125.779 67.0359 125.866 67.4685C125.924 67.6993 126.039 67.9299 126.125 68.1608C126.27 67.9299 126.299 67.6993 126.299 67.4685C126.356 64.6131 126.385 61.7289 126.443 58.8736C126.472 57.5757 126.327 56.3066 125.981 55.0953C125.751 54.23 125.462 53.3936 125.174 52.5283Z" fill="#383838"/>
<path d="M102.735 122.845C102.764 122.701 102.764 122.643 102.764 122.556C102.735 120.682 102.677 118.836 102.649 116.961C102.649 116.702 102.504 116.644 102.303 116.673C101.581 116.759 100.86 116.875 100.168 116.932C99.8221 116.961 99.7068 117.105 99.7356 117.423C99.7644 118.922 99.7932 120.451 99.8509 121.951C99.8509 122.095 100.024 122.297 100.139 122.326C100.976 122.528 101.841 122.672 102.735 122.845Z" fill="#383838"/>
<path d="M124.396 64.0939C124.396 63.2287 124.396 62.4499 124.396 61.6424C122.06 61.5558 119.868 62.1327 117.676 62.9403C117.964 63.6613 118.252 64.3824 118.541 65.1323C120.502 64.6996 122.377 64.0363 124.396 64.0939Z" fill="#383838"/>
<path d="M99.3025 122.182C99.3025 120.451 99.3025 118.779 99.3025 117.077C99.216 117.048 99.1294 117.019 99.0718 117.048C98.2931 117.221 97.5432 117.394 96.7933 117.567C96.7068 117.596 96.5914 117.827 96.6202 117.971C96.6202 119.096 96.6492 120.221 96.7068 121.346C96.7068 121.461 96.851 121.663 96.9664 121.692C97.7163 121.865 98.495 122.009 99.3025 122.182Z" fill="#383838"/>
<path d="M111.878 123.97C111.878 121.317 111.878 118.75 111.878 116.096C111.33 116.154 110.897 116.183 110.464 116.212C110.464 118.778 110.464 121.288 110.464 123.826C110.983 123.884 111.416 123.941 111.878 123.97Z" fill="#383838"/>
<path d="M127.078 71.3045C127.136 71.3045 127.223 71.2755 127.28 71.2755C127.28 68.9682 127.28 66.6897 127.28 64.3535C127.194 64.3535 127.05 64.3535 126.848 64.3535C126.79 66.1418 126.675 67.9011 126.675 69.6893C126.703 70.2084 126.963 70.7564 127.078 71.3045Z" fill="#383838"/>
<path d="M96.0154 121.49C95.2655 121.317 94.5733 121.173 93.8811 121C93.7946 120.971 93.708 120.884 93.6215 120.826C90.0162 117.192 87.4782 112.924 86.0072 107.992C85.1707 105.223 84.7382 102.396 84.767 99.5122C84.7958 92.9362 86.6706 86.9082 90.5643 81.5725C93.5062 77.5057 97.2556 74.3619 101.755 72.1411C102.678 71.6796 103.63 71.3046 104.581 70.8721C104.928 71.6508 104.755 72.0257 104.062 72.343C97.8902 74.9387 93.1023 79.1496 89.7566 84.9469C87.9396 88.0907 86.7859 91.4941 86.238 95.0993C85.8341 97.7817 85.8341 100.493 86.1803 103.204C86.9014 108.742 89.0644 113.645 92.5832 117.971C93.1024 118.606 93.6792 119.211 94.2561 119.846C94.2849 119.875 94.3425 119.903 94.5156 120.019C94.5156 119.528 94.5445 119.125 94.5156 118.721C94.4868 118.433 94.6021 118.259 94.8617 118.173C95.2367 118.029 95.5827 117.856 96.0442 117.683C96.0154 118.952 96.0154 120.163 96.0154 121.49Z" fill="#383838"/>
<path d="M134.577 121.374C135.067 121.259 135.558 121.143 136.048 121.057C136.423 120.999 136.712 120.797 136.971 120.509C141.586 115.692 144.384 109.982 145.278 103.348C145.653 100.55 145.653 97.7526 145.22 94.9548C144.701 91.3785 143.576 88.004 141.845 84.8602C138.961 79.6398 134.895 75.6019 129.674 72.6888C129.501 72.6023 129.299 72.5157 129.068 72.4292C129.068 72.7466 129.097 73.006 129.068 73.2369C129.04 73.5541 129.184 73.7271 129.443 73.8714C131.145 74.7943 132.703 75.9191 134.173 77.1882C138.471 80.9088 141.47 85.4659 143.143 90.8882C143.807 93.0225 144.182 95.1857 144.326 97.4065C144.384 98.2429 144.326 99.1082 144.326 99.9734C139.25 100.348 134.202 100.723 129.097 101.127C129.328 101.617 129.53 102.021 129.732 102.454C130.251 103.492 130.251 103.463 131.405 103.377C133.539 103.204 135.673 103.088 137.808 102.915C138.99 102.829 140.144 102.742 141.326 102.656C142.278 102.598 143.23 102.54 144.21 102.483C143.345 110.01 140.086 116.24 134.577 121.374Z" fill="#383838"/>
<path d="M96.0146 121.489C96.0146 120.163 96.0146 118.951 96.0146 117.653C95.5531 117.855 95.207 118.028 94.8322 118.144C94.5725 118.23 94.4572 118.403 94.486 118.692C94.5148 119.096 94.486 119.499 94.486 119.99C94.3417 119.874 94.2841 119.874 94.2264 119.817C93.6784 119.211 93.0727 118.605 92.5536 117.942C89.0349 113.616 86.8717 108.712 86.1507 103.175C85.8046 100.464 85.8046 97.7524 86.2083 95.0701C86.7275 91.4648 87.8812 88.0614 89.7271 84.9176C93.0727 79.1205 97.8605 74.9096 104.033 72.3137C104.725 72.0252 104.898 71.6215 104.552 70.8428C103.6 71.2465 102.648 71.6503 101.725 72.1118C97.226 74.3327 93.4765 77.4765 90.5347 81.5432C86.6698 86.8789 84.7662 92.9069 84.7374 99.4829C84.7374 102.367 85.17 105.194 85.9776 107.962C87.4485 112.866 89.9867 117.134 93.592 120.797C93.6784 120.884 93.7649 120.941 93.8514 120.97C94.5725 121.172 95.2647 121.316 96.0146 121.489Z" fill="#383838"/>
<path d="M85.3153 77.8513C86.5843 78.9185 87.7957 79.928 89.0359 80.9663C89.2089 80.7355 89.3819 80.5624 89.5262 80.3605C88.4879 79.4953 87.4784 78.63 86.4978 77.7936C86.6421 77.736 86.7285 77.7648 86.815 77.7936C87.8245 78.3416 88.8339 78.8609 89.8434 79.3799C89.9877 79.4377 90.1896 79.3799 90.3627 79.3799C90.3337 79.2358 90.3627 79.0338 90.2761 78.9185C89.7857 78.284 89.2954 77.6494 88.8051 77.0149C88.5167 76.6689 88.2571 76.2939 87.9976 75.9189C88.0264 75.89 88.0552 75.8612 88.0841 75.8324C89.0935 76.6977 90.1031 77.5341 91.1702 78.4282C91.2855 78.1397 91.8624 78.0244 91.4586 77.6782C90.3337 76.6689 89.1513 75.7171 87.9687 74.7363C87.8245 74.8806 87.7092 75.0247 87.5937 75.169C87.1323 75.7171 87.1324 75.7171 87.5649 76.2939C88.0552 76.9283 88.5167 77.5341 89.007 78.1685C88.8051 78.1975 88.661 78.1397 88.5167 78.082C87.8533 77.736 87.19 77.361 86.5266 77.0149C86.4112 76.9573 86.1516 76.9283 86.0651 77.0149C85.7767 77.2745 85.5748 77.5629 85.3153 77.8513Z" fill="#383838"/>
<path d="M143.115 77.9091C143.143 77.9379 143.172 77.9667 143.201 77.9957C143.115 78.1398 143.057 78.2841 142.97 78.4282C142.567 79.0916 142.163 79.755 141.759 80.3895C141.355 81.0529 141.355 81.0529 141.99 81.6008C143.23 80.6202 144.499 79.6396 145.768 78.6301C145.595 78.3994 145.451 78.2551 145.307 78.0533C144.441 78.7166 143.605 79.38 142.768 80.0434C142.74 80.0146 142.711 79.9857 142.682 79.9569C142.768 79.8127 142.826 79.6684 142.913 79.5243C143.317 78.8609 143.72 78.2263 144.124 77.563C144.528 76.9284 144.499 76.8419 143.864 76.3516C142.624 77.3323 141.384 78.2841 140.115 79.2935C140.288 79.5243 140.432 79.6972 140.576 79.8991C141.471 79.2069 142.307 78.5725 143.115 77.9091Z" fill="#383838"/>
<path d="M102.274 68.5355C102.245 68.5644 102.188 68.5932 102.159 68.622C102.044 68.5067 101.928 68.4202 101.842 68.3048C101.294 67.728 100.717 67.1511 100.169 66.5743C99.6497 66.0551 99.6497 66.0551 98.9575 66.5166C99.592 67.9587 100.255 69.4297 100.89 70.9006C101.15 70.7852 101.351 70.6987 101.582 70.5833C101.121 69.5738 100.688 68.5932 100.255 67.6126C100.457 67.6414 100.601 67.7568 100.717 67.8721C101.265 68.4201 101.813 68.997 102.361 69.5738C102.88 70.1219 102.938 70.1219 103.601 69.6316C102.967 68.1895 102.303 66.7184 101.64 65.2476C101.38 65.3629 101.207 65.4494 100.948 65.5648C101.409 66.6031 101.842 67.5549 102.274 68.5355Z" fill="#383838"/>
<path d="M80.008 110.645C81.5366 110.241 83.0652 109.837 84.6516 109.434C84.5938 109.174 84.5362 108.943 84.4785 108.712C83.4114 109.001 82.373 109.26 81.3347 109.549C81.3059 109.52 81.3059 109.462 81.277 109.434C82.0269 108.914 82.7768 108.366 83.5267 107.847C84.1613 107.386 84.1613 107.386 83.8729 106.607C82.3443 107.011 80.7867 107.415 79.2292 107.847C79.2869 108.107 79.3446 108.337 79.4023 108.597C80.4695 108.309 81.5078 108.049 82.5461 107.761C82.5749 107.79 82.5749 107.847 82.6037 107.876C81.8538 108.424 81.0751 108.972 80.3252 109.491C79.6907 109.866 79.6907 109.866 80.008 110.645Z" fill="#383838"/>
<path d="M84.4204 90.6288C82.8628 90.2538 81.3342 89.9077 79.748 89.5327C79.6903 89.7923 79.6326 90.023 79.5749 90.2826C80.6421 90.5422 81.6516 90.7729 82.6899 91.0037C82.6899 91.0325 82.6899 91.0901 82.661 91.1191C82.5744 91.1479 82.4591 91.1767 82.3725 91.1767C81.5362 91.2922 80.7286 91.4363 79.8922 91.494C79.3153 91.5228 79.1134 91.7825 79.0846 92.3016C79.0846 92.3304 79.0846 92.3593 79.1134 92.4458C80.6421 92.7918 82.1996 93.1668 83.7858 93.5418C83.8436 93.2821 83.9012 93.0515 83.9589 92.7918C82.8918 92.5324 81.8534 92.3016 80.8151 92.0419C80.9016 91.8978 80.9882 91.869 81.0747 91.869C81.94 91.7535 82.8052 91.6382 83.6705 91.5228C84.3627 91.4363 84.3627 91.4363 84.4204 90.6288Z" fill="#383838"/>
<path d="M137.721 76.5248C137.923 76.7266 138.067 76.8997 138.269 77.1305C138.731 76.6978 139.163 76.2653 139.625 75.8903C139.74 75.8038 140 75.746 140.086 75.8038C140.375 76.0345 140.605 76.3229 140.865 76.6113C140.288 77.1593 139.769 77.6496 139.221 78.1689C139.423 78.3707 139.596 78.5437 139.769 78.7457C140.98 77.6208 142.134 76.5248 143.316 75.4288C143.115 75.198 142.942 75.0539 142.768 74.852C142.278 75.2845 141.817 75.7172 141.326 76.1498C141.009 75.8038 140.721 75.4864 140.403 75.1692C140.894 74.7077 141.326 74.2752 141.788 73.8425C141.586 73.6406 141.442 73.4675 141.24 73.2656C140.057 74.304 138.904 75.4 137.721 76.5248Z" fill="#383838"/>
<path d="M149.027 92.1862C148.768 92.2438 148.595 92.3015 148.393 92.3593C148.479 93.0226 148.479 93.0226 147.845 93.0802C147.787 93.0802 147.729 93.0802 147.672 93.0802C147.354 93.0514 147.095 92.9361 147.037 92.5899C146.95 92.2438 147.095 91.9554 147.412 91.84C148.306 91.6094 149.2 91.4075 150.094 91.2344C150.44 91.1767 150.642 91.4075 150.7 91.7247C150.787 92.0419 150.671 92.3015 150.383 92.4457C150.239 92.5322 150.123 92.59 149.979 92.6765C150.037 92.9072 150.094 93.138 150.152 93.3399C151.19 93.0802 151.536 92.5899 151.363 91.667C151.219 90.7441 150.671 90.2537 149.777 90.3979C148.883 90.5422 147.989 90.8017 147.095 91.0613C146.633 91.2055 146.287 91.5228 146.287 92.0709C146.287 92.6187 146.431 93.0802 146.979 93.3111C147.008 93.3111 147.037 93.3687 147.066 93.4264C146.922 93.5129 146.806 93.5705 146.691 93.6571C146.72 93.8014 146.749 93.9455 146.806 94.1186C147.614 93.9455 148.393 93.7724 149.142 93.5705C149.2 93.5417 149.287 93.3975 149.287 93.3399C149.258 92.9937 149.142 92.6188 149.027 92.1862Z" fill="#383838"/>
<path d="M81.4218 114.625C82.6331 114.135 83.7868 113.702 84.9404 113.241C85.3443 113.068 85.6904 112.808 85.6904 112.318C85.7193 111.712 85.5173 111.135 85.0559 110.731C84.8251 110.529 84.4214 110.443 84.1041 110.443C83.7002 110.472 83.3253 110.674 82.9215 110.818C82.0563 111.135 81.2198 111.481 80.3546 111.798C80.47 112.058 80.5565 112.289 80.643 112.548C81.1333 112.375 81.5948 112.202 82.0563 112.029C82.7484 111.77 83.4408 111.51 84.1329 111.279C84.4791 111.164 84.7963 111.279 84.9404 111.683C85.0847 112.087 84.9116 112.318 84.5655 112.491C84.3636 112.577 84.1329 112.693 83.9311 112.779C83.0081 113.125 82.0851 113.471 81.1334 113.846C81.2488 114.106 81.3064 114.308 81.4218 114.625Z" fill="#383838"/>
<path d="M137.664 70.064C137.116 69.6602 136.568 69.2853 136.049 68.8815C135.789 68.6796 135.616 68.7084 135.414 68.9681C134.837 69.8045 134.203 70.6408 133.597 71.4773C133.337 71.8234 133.107 72.1694 132.818 72.5444C133.51 73.0348 134.145 73.4962 134.837 73.9866C134.981 73.7846 135.126 73.6117 135.27 73.4097C134.808 73.0636 134.405 72.7464 133.943 72.4003C134.232 71.9965 134.52 71.6216 134.808 71.2466C135.241 71.535 135.616 71.8234 136.049 72.1118C136.193 71.91 136.308 71.7657 136.452 71.5638C136.135 71.3331 135.789 71.1313 135.501 70.8716C135.414 70.7851 135.327 70.5544 135.385 70.4679C135.529 70.1795 135.76 69.9486 135.962 69.6892C136.424 70.0064 136.827 70.2948 137.289 70.612C137.404 70.4389 137.519 70.2948 137.664 70.064Z" fill="#383838"/>
<path d="M137.836 74.3904C137.663 74.5346 137.548 74.7365 137.375 74.7941C137.144 74.8807 136.855 74.9095 136.654 74.8231C136.365 74.6788 136.336 74.3326 136.538 74.102C137.144 73.3808 137.749 72.6599 138.384 71.9965C138.499 71.8812 138.903 71.91 139.076 72.0253C139.22 72.1118 139.249 72.4868 139.192 72.6599C139.019 73.179 139.019 73.2655 139.595 73.4963C139.682 73.352 139.797 73.2079 139.884 73.0348C140.201 72.429 140.086 72.0253 139.509 71.5062C139.019 71.0447 138.442 70.9582 137.951 71.3043C137.028 71.9965 136.307 72.8329 135.759 73.8423C135.529 74.275 135.615 74.7076 135.932 75.0825C136.711 76.0055 137.577 75.9478 138.384 74.9095C138.24 74.7365 138.067 74.5922 137.836 74.3904Z" fill="#383838"/>
<path d="M81.0469 87.7442C81.2488 87.1962 81.4219 86.7059 81.6526 86.0713C81.3353 86.1001 80.9604 86.0425 80.9027 86.1578C80.5854 86.8212 80.3547 87.5423 80.0663 88.2633C81.595 88.8689 83.0658 89.417 84.5945 90.0227C84.7098 89.7343 84.7676 89.5323 84.8829 89.2728C84.3061 89.042 83.787 88.8113 83.2389 88.6094C82.9505 88.4941 82.8928 88.3786 83.0081 88.0902C83.1524 87.7442 83.2677 87.3692 83.4408 86.9943C83.2101 86.9077 83.0081 86.85 82.8062 86.7635C82.6332 87.1674 82.5178 87.5134 82.3447 87.8595C82.2871 87.9749 82.0853 88.1191 81.9987 88.0902C81.6815 88.0326 81.3929 87.8883 81.0469 87.7442Z" fill="#383838"/>
<path d="M151.594 93.6855C150.181 94.5797 148.854 95.6757 146.95 95.445C147.008 95.8199 147.037 96.0794 147.123 96.4256C148.883 95.7045 150.411 96.5121 152.026 96.9736C152.055 96.1372 152.026 96.166 151.334 95.9641C150.93 95.8487 150.527 95.7334 150.008 95.5891C150.498 95.3007 150.844 95.0988 151.19 94.897C151.796 94.5508 151.796 94.5508 151.594 93.6855Z" fill="#383838"/>
<path d="M95.4389 74.4481C94.6025 73.352 93.766 72.2849 92.9297 71.1889C93.2181 70.9293 93.4488 70.7274 93.7372 70.4968C93.5641 70.2947 93.4488 70.1506 93.3047 69.9487C92.5258 70.5544 91.776 71.1312 90.9972 71.737C91.1415 71.9389 91.2856 72.1118 91.4011 72.2849C91.7183 72.0542 91.9779 71.8811 92.2663 71.6792C93.1316 72.7752 93.968 73.8424 94.8044 74.9384C95.0352 74.7653 95.2082 74.6211 95.4389 74.4481Z" fill="#383838"/>
<path d="M134.952 68.1603C134.115 67.6701 133.279 67.2086 132.443 66.7183C132.327 66.9489 132.212 67.122 132.125 67.3239C132.443 67.5258 132.702 67.6701 133.02 67.8719C132.327 69.0833 131.664 70.237 130.972 71.4484C131.231 71.5926 131.433 71.7079 131.693 71.8522C132.298 70.785 132.904 69.7467 133.481 68.7084C133.683 68.3622 133.827 68.2757 134.173 68.5065C134.664 68.8525 134.664 68.8237 134.952 68.1603Z" fill="#383838"/>
<path d="M145.652 87.3694C145.479 86.9655 145.335 86.6195 145.162 86.2733C144.989 85.9561 145.018 85.783 145.393 85.6677C145.883 85.4946 146.373 85.235 146.864 85.0331C147.469 84.7447 148.075 84.4852 148.738 84.1679C148.623 83.9083 148.508 83.6776 148.421 83.418C146.921 84.0813 145.479 84.7447 143.979 85.4081C144.326 86.1868 144.643 86.9079 144.989 87.6578C145.22 87.5713 145.422 87.4847 145.652 87.3694Z" fill="#383838"/>
<path d="M82.4023 106.434C82.6041 106.405 82.835 106.377 83.0368 106.319C83.6137 106.175 83.8733 105.684 83.7578 105.05C83.6137 104.3 83.2387 104.04 82.5753 104.127C81.9985 104.213 81.4505 104.271 80.8737 104.357C80.1526 104.473 79.4316 104.588 78.6528 104.732C78.6817 105.021 78.7394 105.252 78.7682 105.511C80.0949 105.309 81.3639 105.107 82.6619 104.963C82.806 104.934 82.9791 105.136 83.1522 105.252C83.0368 105.396 82.9215 105.598 82.7772 105.655C82.2004 105.8 82.2004 105.771 82.4023 106.434Z" fill="#383838"/>
<path d="M83.6137 94.2626C82.1427 94.003 80.7006 93.7434 79.2297 93.4839C78.9701 93.4262 78.797 93.455 78.797 93.7434C78.7682 94.003 78.7105 94.2337 79.1143 94.3202C80.3545 94.5221 81.5658 94.7529 82.7772 94.9548C83.7002 95.0991 83.5272 95.0991 83.6137 94.2626Z" fill="#383838"/>
<path d="M93.7363 69.689C94.6881 71.0156 95.6399 72.3136 96.5917 73.6403C96.8513 73.4673 97.0243 73.3231 97.2551 73.15C96.3033 71.8233 95.3803 70.5543 94.4285 69.2275C94.1689 69.4006 93.967 69.516 93.7363 69.689Z" fill="#383838"/>
<path d="M119.636 68.2758C121.511 68.0162 123.328 67.7567 125.174 67.4683C125.174 67.8432 125.174 68.1892 125.174 68.5066C125.174 78.8031 125.174 89.0997 125.174 99.3963C125.174 100.146 125.174 100.146 124.395 100.175C124.049 100.204 123.732 100.175 123.299 100.175C123.299 100.377 123.299 100.55 123.299 100.723C123.299 108.078 123.299 115.433 123.299 122.758C123.299 123.249 123.184 123.48 122.694 123.451C122.348 123.451 122.002 123.508 121.598 123.537C121.598 123.335 121.598 123.162 121.598 122.989C121.569 113.846 121.54 104.703 121.511 95.5604C121.511 90.2823 121.482 85.0041 121.54 79.7261C121.569 77.3322 121.309 74.9961 120.733 72.6598C120.415 71.333 120.069 70.0063 119.723 68.6795C119.694 68.6507 119.665 68.4777 119.636 68.2758Z" fill="#383838"/>
<path d="M134.577 121.374C140.086 116.24 143.345 110.01 144.268 102.511C143.287 102.569 142.335 102.627 141.384 102.685C140.201 102.771 139.048 102.857 137.865 102.944C135.731 103.088 133.596 103.232 131.462 103.405C130.28 103.492 130.308 103.521 129.789 102.482C129.587 102.079 129.385 101.646 129.155 101.156C134.26 100.781 139.307 100.406 144.383 100.002C144.383 99.108 144.441 98.2716 144.383 97.4353C144.239 95.2143 143.864 93.0223 143.201 90.9169C141.528 85.4947 138.528 80.9086 134.231 77.217C132.76 75.9478 131.203 74.8519 129.501 73.9001C129.241 73.756 129.068 73.5829 129.126 73.2655C129.155 73.0348 129.126 72.7752 129.126 72.458C129.357 72.5733 129.559 72.6311 129.732 72.7176C134.952 75.6306 139.019 79.6684 141.903 84.8889C143.633 88.0615 144.758 91.4361 145.277 94.9836C145.681 97.7813 145.71 100.579 145.335 103.377C144.441 110.01 141.643 115.721 137.029 120.538C136.769 120.826 136.481 120.999 136.106 121.086C135.558 121.143 135.067 121.259 134.577 121.374Z" fill="#383838"/>
<path d="M125.722 68.3335C126.068 69.4584 126.443 70.5832 126.761 71.708C126.991 72.4579 127.164 73.2366 127.337 74.0153C127.395 74.3327 127.366 74.6787 127.366 75.0248C127.366 79.6973 127.366 84.3409 127.366 89.0133C127.366 91.8687 127.337 94.7239 127.337 97.5793C127.337 98.3004 127.424 98.9926 127.453 99.7137C127.453 99.829 127.309 100.002 127.251 100.031C126.732 100.06 126.184 100.031 125.636 100.031C125.636 89.4746 125.636 78.9185 125.636 68.3623C125.636 68.3335 125.693 68.3335 125.722 68.3335Z" fill="#383838"/>
<path d="M104.293 87.2827C104.293 86.7347 104.293 86.1866 104.293 85.6098C104.293 85.4945 104.322 85.3791 104.38 85.2638C105.736 82.1488 108.129 80.1299 111.158 78.7743C112.542 78.1686 113.927 77.4764 115.398 77.0438C117.07 76.5246 118.801 76.2651 120.531 75.8902C120.791 75.8324 120.906 75.919 120.935 76.1786C120.964 77.0149 120.993 77.8801 120.993 78.7166C120.993 78.8319 120.82 79.0339 120.676 79.0339C116.176 79.6396 111.937 80.9374 108.129 83.5043C106.947 84.312 105.909 85.2926 105.043 86.4751C104.841 86.7636 104.611 87.0231 104.409 87.3115C104.351 87.3404 104.322 87.3115 104.293 87.2827Z" fill="#383838"/>
<path d="M120.041 71.8812C118.368 72.3138 116.753 72.6887 115.167 73.179C112.312 74.0443 109.629 75.2557 107.293 77.1593C106.226 78.0245 105.332 79.0339 104.697 80.2741C104.611 80.4472 104.495 80.6203 104.38 80.7934C104.38 80.8222 104.322 80.8222 104.265 80.8799C104.265 79.6109 104.409 78.3995 104.986 77.2746C105.851 75.6017 107.178 74.3327 108.649 73.2078C110.869 71.5063 113.465 70.4679 116.061 69.5161C116.868 69.2277 117.705 69.0258 118.541 68.795C119.089 68.6509 119.147 68.7085 119.291 69.2565C119.58 70.1795 119.81 71.0448 120.041 71.8812Z" fill="#383838"/>
<path d="M104.293 98.6755C104.293 98.0698 104.293 97.493 104.293 96.8872C104.293 96.7431 104.409 96.5988 104.495 96.4835C105.562 95.0702 107.005 94.0608 108.533 93.2243C111.215 91.7822 114.071 90.8882 117.07 90.4555C118.166 90.2824 119.32 90.2536 120.416 90.1383C120.849 90.0805 120.964 90.2536 120.935 90.6574C120.906 91.3207 120.906 91.9841 120.935 92.6475C120.935 92.9071 120.849 93.0224 120.56 93.0224C118.253 93.109 115.974 93.6281 113.725 94.0608C111.389 94.5223 109.254 95.5029 107.12 96.5124C106.514 96.8008 105.995 97.3199 105.476 97.7525C105.101 98.0698 104.755 98.4158 104.409 98.762C104.38 98.7043 104.322 98.6755 104.293 98.6755Z" fill="#383838"/>
<path d="M120.906 110.616C120.906 111.655 120.906 112.606 120.906 113.616C120.156 113.645 119.406 113.731 118.685 113.731C115.628 113.731 112.57 114.02 109.542 114.481C107.956 114.712 106.485 115.26 105.014 115.865C104.812 115.952 104.581 115.952 104.321 116.01C104.321 115.317 104.264 114.741 104.35 114.135C104.379 113.875 104.639 113.558 104.898 113.472C105.879 113.039 106.888 112.635 107.898 112.347C109.974 111.712 112.138 111.51 114.301 111.222C116.32 110.934 118.339 110.616 120.415 110.674C120.531 110.645 120.704 110.616 120.906 110.616Z" fill="#383838"/>
<path d="M104.293 104.444C104.293 103.781 104.293 103.175 104.293 102.541C104.293 102.396 104.409 102.252 104.524 102.137C106.255 100.32 108.504 99.4256 110.841 98.6757C113.955 97.6951 117.128 97.0895 120.387 97.0317C120.531 97.0317 120.676 97.0317 120.878 97.0317C120.878 98.0123 120.878 98.9353 120.878 99.9449C120.445 99.9737 119.983 100.002 119.522 100.031C116.782 100.204 114.042 100.464 111.389 101.156C109.543 101.646 107.668 102.166 105.995 103.175C105.447 103.55 104.899 104.011 104.293 104.444Z" fill="#383838"/>
<path d="M104.293 92.8203C104.293 92.2433 104.293 91.7819 104.293 91.3493C104.293 91.2917 104.293 91.2339 104.322 91.1762C105.418 89.5034 106.716 88.0036 108.447 86.9077C110.841 85.4078 113.494 84.6002 116.205 83.9657C117.59 83.6484 118.974 83.36 120.387 83.2734C120.531 83.2734 120.676 83.2446 120.906 83.2446C120.906 84.1676 120.906 85.0329 120.878 85.8981C120.878 85.9847 120.647 86.1288 120.503 86.1288C118.57 86.2443 116.696 86.6192 114.821 87.0806C111.792 87.8305 108.908 88.8976 106.399 90.8012C105.793 91.2627 105.303 91.8396 104.755 92.3588C104.64 92.4741 104.524 92.6183 104.293 92.8203Z" fill="#383838"/>
<path d="M120.906 103.953C120.906 104.905 120.906 105.77 120.906 106.722C120.012 106.751 119.118 106.78 118.253 106.809C114.417 106.953 110.61 107.501 107.033 108.943C106.226 109.26 105.476 109.722 104.668 110.126C104.582 110.183 104.495 110.212 104.293 110.299C104.293 109.549 104.293 108.828 104.293 108.135C104.293 108.049 104.409 107.934 104.524 107.876C106.082 106.953 107.61 105.915 109.398 105.511C110.956 105.165 112.485 104.847 114.042 104.559C116.09 104.184 118.138 103.925 120.243 103.953C120.445 103.953 120.647 103.953 120.906 103.953Z" fill="#383838"/>
<path d="M106.081 67.0933C106.86 64.959 107.494 62.7093 109.081 61.0365C110.032 60.027 111.302 59.2771 112.484 58.5272C115.397 56.6525 118.599 55.4123 121.973 54.7201C122.521 54.6047 123.069 54.5759 123.617 54.5182C123.848 54.4893 124.107 54.5182 124.367 54.5182C124.367 55.6142 124.367 56.6525 124.367 57.7485C121.54 57.9216 118.772 58.4407 116.061 59.479C115.83 59.0464 115.599 58.6138 115.397 58.1523C115.253 57.8062 115.022 57.7485 114.763 57.9216C113.926 58.4984 113.061 59.0464 112.282 59.6809C110.581 61.0942 108.994 62.6228 107.783 64.4975C107.35 65.1897 106.946 65.9108 106.543 66.603C106.427 66.8049 106.312 66.978 106.197 67.1798C106.168 67.151 106.139 67.1221 106.081 67.0933Z" fill="#383838"/>
<path d="M112.311 116.154C113.118 116.471 113.753 116.731 114.416 116.99C115.541 117.452 115.541 117.452 115.541 118.634C115.541 120.278 115.541 121.893 115.541 123.537C115.541 123.711 115.541 123.912 115.541 124.172C114.532 124.114 113.551 124.057 112.513 124.028C112.455 121.432 112.397 118.865 112.311 116.154Z" fill="#383838"/>
<path d="M107.032 116.356C107.955 116.298 108.878 116.24 109.888 116.183C109.888 118.721 109.888 121.201 109.888 123.739C109.686 123.739 109.455 123.768 109.224 123.739C108.676 123.682 108.157 123.595 107.609 123.566C107.206 123.537 107.032 123.393 107.032 122.932C107.061 121.432 107.032 119.932 107.004 118.432C107.032 117.769 107.032 117.106 107.032 116.356Z" fill="#383838"/>
<path d="M106.484 116.298C106.484 118.692 106.484 120.999 106.484 123.364C105.965 123.306 105.417 123.249 104.869 123.162C104.494 123.105 104.148 123.047 103.773 122.989C103.543 122.96 103.37 122.903 103.37 122.614C103.37 120.653 103.37 118.692 103.398 116.73C103.398 116.702 103.427 116.644 103.456 116.557C104.408 116.471 105.388 116.413 106.484 116.298Z" fill="#383838"/>
<path d="M125.175 52.5283C125.434 53.3936 125.752 54.23 125.982 55.0953C126.328 56.3355 126.473 57.6045 126.444 58.8736C126.386 61.7289 126.357 64.6131 126.3 67.4685C126.3 67.6993 126.242 67.9299 126.126 68.1608C126.04 67.9299 125.925 67.6993 125.867 67.4685C125.78 67.0359 125.607 66.7187 125.059 66.8916C125.059 62.075 125.059 57.3161 125.059 52.5572C125.117 52.5572 125.146 52.5572 125.175 52.5283Z" fill="#383838"/>
<path d="M102.735 122.845C101.841 122.672 100.976 122.528 100.111 122.355C99.9953 122.326 99.8222 122.124 99.8222 121.98C99.7645 120.48 99.7645 118.951 99.7069 117.451C99.7069 117.105 99.8222 116.99 100.139 116.961C100.861 116.903 101.582 116.788 102.274 116.702C102.505 116.673 102.62 116.73 102.62 116.99C102.649 118.865 102.706 120.711 102.735 122.585C102.793 122.614 102.764 122.701 102.735 122.845Z" fill="#383838"/>
<path d="M124.396 64.0939C122.377 64.0363 120.502 64.6996 118.57 65.1323C118.281 64.3824 117.993 63.6613 117.704 62.9403C119.868 62.1327 122.06 61.5558 124.425 61.6424C124.396 62.4499 124.396 63.2287 124.396 64.0939Z" fill="#383838"/>
<path d="M85.3153 77.8512C85.5748 77.534 85.7479 77.2744 86.0075 77.0437C86.094 76.9571 86.3536 76.9859 86.469 77.0437C87.1323 77.3897 87.7957 77.7646 88.4591 78.1108C88.6032 78.1685 88.7186 78.2261 88.9494 78.1973C88.4591 77.5628 87.9976 76.9571 87.5073 76.3226C87.0746 75.7457 87.0746 75.7457 87.5361 75.1977C87.6514 75.0536 87.7668 74.9382 87.9111 74.7651C89.0935 75.7747 90.2761 76.7263 91.4009 77.7071C91.8048 78.0531 91.2279 78.1685 91.1124 78.457C90.0741 77.5628 89.0359 76.7265 88.0264 75.8611C87.9976 75.89 87.9687 75.9188 87.9399 75.9476C88.1995 76.3226 88.4879 76.6687 88.7475 77.0437C89.2378 77.6781 89.7569 78.3127 90.2184 78.9473C90.3049 79.0626 90.2761 79.2645 90.3049 79.4088C90.1319 79.4088 89.93 79.4664 89.7857 79.4088C88.7763 78.8895 87.7668 78.3415 86.7574 77.8224C86.6709 77.7936 86.5843 77.7646 86.44 77.8224C87.4496 78.6588 88.4302 79.4953 89.4685 80.3893C89.3243 80.5912 89.1513 80.7643 88.9782 80.995C87.7957 79.9566 86.5843 78.9183 85.3153 77.8512Z" fill="#383838"/>
<path d="M99.3035 122.182C98.4959 122.009 97.7172 121.865 96.9384 121.691C96.8231 121.663 96.7078 121.461 96.6788 121.345C96.6212 120.22 96.5923 119.096 96.5923 117.971C96.5923 117.827 96.6788 117.596 96.7654 117.567C97.5153 117.365 98.294 117.192 99.0439 117.048C99.1016 117.048 99.1592 117.077 99.2746 117.077C99.3035 118.75 99.3035 120.451 99.3035 122.182Z" fill="#383838"/>
<path d="M111.879 123.97C111.446 123.941 110.985 123.883 110.465 123.855C110.465 121.317 110.465 118.778 110.465 116.24C110.869 116.212 111.331 116.154 111.879 116.125C111.879 118.75 111.879 121.317 111.879 123.97Z" fill="#383838"/>
<path d="M143.115 77.9091C142.307 78.5436 141.471 79.2069 140.606 79.8991C140.462 79.6972 140.317 79.5243 140.144 79.2935C141.413 78.2841 142.654 77.3323 143.894 76.3516C144.528 76.8419 144.528 76.9284 144.153 77.563C143.75 78.2263 143.346 78.8609 142.942 79.5243C142.855 79.6684 142.798 79.8127 142.711 79.9569C142.74 79.9857 142.769 80.0146 142.798 80.0434C143.634 79.38 144.471 78.7454 145.336 78.0533C145.509 78.2551 145.624 78.4282 145.797 78.6301C144.528 79.6396 143.288 80.6202 142.019 81.6008C141.384 81.0817 141.384 81.0529 141.788 80.3895C142.192 79.7262 142.596 79.0628 143 78.4282C143.086 78.2841 143.144 78.1398 143.23 77.9957C143.173 77.9667 143.144 77.9379 143.115 77.9091Z" fill="#383838"/>
<path d="M102.273 68.5355C101.841 67.5549 101.408 66.5743 100.975 65.5937C101.206 65.4782 101.408 65.3917 101.668 65.2764C102.331 66.7474 102.966 68.2183 103.629 69.6604C102.966 70.1219 102.908 70.1219 102.389 69.6028C101.841 69.0259 101.293 68.4779 100.745 67.9011C100.629 67.7857 100.485 67.6992 100.283 67.6414C100.716 68.622 101.149 69.6028 101.61 70.6122C101.379 70.7275 101.177 70.814 100.918 70.9294C100.254 69.4585 99.6199 67.9876 98.9854 66.5455C99.7065 66.084 99.7065 66.084 100.197 66.6031C100.745 67.1799 101.321 67.7568 101.87 68.3336C101.985 68.449 102.071 68.5355 102.187 68.651C102.187 68.5932 102.244 68.5644 102.273 68.5355Z" fill="#383838"/>
<path d="M80.008 110.645C79.6908 109.866 79.6908 109.866 80.2964 109.433C81.0752 108.886 81.8251 108.338 82.575 107.818C82.5462 107.79 82.546 107.732 82.5172 107.703C81.4789 107.963 80.4406 108.251 79.3735 108.539C79.3158 108.28 79.2581 108.049 79.2004 107.79C80.7868 107.386 82.3154 106.982 83.844 106.549C84.1324 107.357 84.1324 107.357 83.4978 107.79C82.7481 108.309 81.9982 108.857 81.2482 109.376C81.277 109.405 81.277 109.462 81.3058 109.491C82.3442 109.232 83.3825 108.943 84.4496 108.655C84.5074 108.914 84.5651 109.116 84.6227 109.376C83.0653 109.837 81.5367 110.241 80.008 110.645Z" fill="#383838"/>
<path d="M84.4203 90.6287C84.3626 91.4362 84.3626 91.4651 83.6992 91.5515C82.834 91.667 81.9687 91.7823 81.1035 91.8977C81.0169 91.8977 80.9304 91.9554 80.8439 92.0707C81.8822 92.3014 82.9205 92.561 83.9876 92.8207C83.93 93.0801 83.8723 93.2821 83.8147 93.5706C82.2283 93.1956 80.6709 92.8207 79.1422 92.4745C79.1134 92.388 79.1134 92.3592 79.1134 92.3304C79.1422 91.8399 79.3441 91.5515 79.921 91.5227C80.7574 91.4939 81.565 91.3208 82.4014 91.2055C82.5168 91.2055 82.6033 91.1767 82.6898 91.1477C82.6898 91.1189 82.6898 91.0612 82.7186 91.0324C81.7092 90.8017 80.6709 90.5421 79.6037 90.3113C79.6614 90.0518 79.7191 89.821 79.7768 89.5615C81.3343 89.9075 82.8629 90.2537 84.4203 90.6287Z" fill="#383838"/>
<path d="M80.6136 97.7238C81.1039 97.0029 81.7673 97.1182 82.4596 97.2913C82.9209 97.4066 83.1518 97.7526 83.1806 98.1853C83.2094 98.6468 83.1806 99.1371 83.1806 99.6274C83.1806 99.8583 83.0652 99.9736 82.8056 99.9736C81.4501 99.9158 80.0656 99.887 78.7101 99.8582C78.4216 99.8582 78.3063 99.7428 78.3351 99.4256C78.364 99.0218 78.3351 98.618 78.364 98.2141C78.4216 97.8104 78.537 97.4354 78.9985 97.2913C79.5176 97.1182 80.008 97.1758 80.4406 97.522C80.4983 97.5797 80.5559 97.6373 80.6136 97.7238ZM81.7962 99.1371C81.7962 99.1659 81.7962 99.1659 81.7962 99.1371C81.9115 99.1371 82.0269 99.1371 82.1134 99.1371C82.4884 99.1949 82.6325 99.0506 82.6037 98.6468C82.546 98.0988 82.0557 97.8104 81.3923 97.9835C80.9598 98.0988 80.902 98.4738 80.902 98.8199C80.902 99.2237 81.2482 99.0506 81.4501 99.1083C81.5654 99.1659 81.6807 99.1371 81.7962 99.1371ZM79.633 99.0506C79.633 99.0794 79.633 99.0794 79.633 99.1083C79.8637 99.0506 80.181 99.0794 80.2964 98.9641C80.4117 98.8487 80.3252 98.5315 80.2387 98.3296C80.1522 98.07 79.5753 97.9835 79.2292 98.0988C78.8254 98.2431 78.8831 98.5891 78.912 98.8775C78.912 98.9641 79.2004 99.0218 79.3734 99.0794C79.4599 99.0794 79.5465 99.0506 79.633 99.0506Z" fill="#383838"/>
<path d="M145.22 110.414C145.335 110.154 145.422 109.952 145.509 109.693C147.037 110.27 148.508 110.847 150.037 111.424C149.806 112.029 149.604 112.548 149.402 113.067C149.143 113.702 148.797 113.904 148.306 113.846C147.643 113.788 147.21 113.442 147.037 112.779C146.143 113.442 145.364 112.519 144.384 112.635C144.499 112.289 144.614 112.029 144.73 111.712C145.105 111.827 145.451 111.971 145.797 112.087C146.662 112.404 147.037 112.173 147.181 111.193C146.576 110.933 145.941 110.674 145.22 110.414ZM147.701 111.366C147.643 111.827 147.47 112.26 147.614 112.606C147.701 112.837 148.22 113.039 148.508 112.981C148.998 112.923 148.998 112.375 149.2 111.943C148.739 111.741 148.306 111.596 147.701 111.366Z" fill="#383838"/>
<path d="M86.3538 80.707C87.3922 80.2743 87.9978 81.2549 88.8631 81.3991C88.8055 81.4857 88.8055 81.5433 88.7765 81.601C88.4305 82.2066 88.4305 82.2066 87.7959 81.8606C87.5653 81.7164 87.3634 81.5722 87.1038 81.4569C86.6135 81.1973 85.9501 81.5722 85.8923 82.1201C85.8923 82.2066 86.0077 82.3509 86.1232 82.4085C86.6135 82.7259 87.1038 83.0431 87.6229 83.3603C87.4787 83.5911 87.3634 83.793 87.1903 84.0237C85.8347 83.1584 84.4791 82.3221 83.0659 81.4279C83.4697 80.8223 83.8446 80.2167 84.2772 79.6686C84.508 79.3513 84.854 79.2071 85.2579 79.3802C85.7482 79.5821 86.2385 79.8128 86.2961 80.4185C86.3538 80.5339 86.3538 80.5915 86.3538 80.707ZM84.9118 80.1877C84.6521 80.1877 83.9888 80.8799 84.1041 80.9954C84.4215 81.3126 84.8252 81.5433 85.229 81.8029C85.4309 81.5145 85.6905 81.2261 85.777 80.8799C85.8923 80.6204 85.3155 80.1877 84.9118 80.1877Z" fill="#383838"/>
<path d="M147.239 99.6846C148.854 99.6846 150.411 99.6846 152.084 99.6846C152.026 100.406 152.055 101.069 151.911 101.675C151.767 102.309 150.642 102.54 150.065 102.078C149.979 101.992 149.892 101.905 149.777 101.761C149.431 102.367 148.912 102.425 148.335 102.367C147.642 102.309 147.296 102.021 147.181 101.329C147.152 101.184 147.123 101.04 147.152 100.925C147.21 100.492 147.239 100.088 147.239 99.6846ZM149.459 100.406C148.969 100.406 148.479 100.406 148.017 100.406C147.96 100.406 147.844 100.55 147.844 100.607C147.729 101.04 147.96 101.386 148.421 101.502C149.142 101.703 149.517 101.357 149.459 100.406ZM150.152 100.434C149.95 101.242 150.181 101.502 150.93 101.473C151.334 101.444 151.507 101.213 151.507 100.752C151.507 100.319 151.19 100.463 150.988 100.434C150.7 100.406 150.411 100.434 150.152 100.434Z" fill="#383838"/>
<path d="M148.595 115.144C148.248 115.779 147.931 116.384 147.585 116.932C147.354 117.279 146.951 117.423 146.518 117.307C145.537 117.048 144.614 116.586 143.836 115.923C143.288 115.461 143.23 115.087 143.518 114.452C143.749 113.962 144.009 113.443 144.268 112.895C145.681 113.673 147.095 114.394 148.595 115.144ZM144.47 113.933C143.951 114.625 143.893 115.029 144.412 115.375C145.047 115.779 145.739 116.125 146.46 116.413C146.979 116.615 147.441 116.298 147.556 115.75C147.585 115.663 147.499 115.49 147.412 115.433C146.46 114.942 145.48 114.452 144.47 113.933Z" fill="#383838"/>
<path d="M137.721 76.5249C138.904 75.4 140.086 74.3329 141.269 73.208C141.47 73.4099 141.615 73.583 141.817 73.7848C141.355 74.2175 140.923 74.6501 140.432 75.1116C140.75 75.4288 141.009 75.7462 141.355 76.0922C141.845 75.6596 142.307 75.2269 142.797 74.7944C142.97 74.9963 143.143 75.1404 143.345 75.3712C142.163 76.4671 141.009 77.5632 139.798 78.6881C139.625 78.4861 139.452 78.3131 139.25 78.1111C139.798 77.592 140.317 77.1017 140.894 76.5537C140.634 76.2653 140.403 75.9768 140.115 75.7462C140.028 75.6884 139.769 75.7462 139.653 75.8327C139.192 76.2077 138.788 76.6402 138.298 77.0729C138.067 76.8998 137.894 76.7268 137.721 76.5249Z" fill="#383838"/>
<path d="M149.027 92.1861C149.142 92.6186 149.229 92.9936 149.315 93.3685C149.315 93.4263 149.229 93.5994 149.171 93.5994C148.392 93.8012 147.614 93.9454 146.835 94.1473C146.777 93.9454 146.748 93.83 146.72 93.6859C146.835 93.6282 146.95 93.5416 147.095 93.4551C147.066 93.3975 147.037 93.3685 147.008 93.3397C146.46 93.1091 146.316 92.6476 146.316 92.0995C146.316 91.5515 146.662 91.2343 147.123 91.09C147.989 90.8305 148.883 90.5709 149.806 90.4268C150.7 90.2825 151.248 90.7728 151.392 91.6958C151.536 92.6186 151.219 93.1091 150.181 93.3685C150.123 93.1667 150.065 92.936 150.008 92.7052C150.152 92.6186 150.296 92.561 150.411 92.4745C150.7 92.3014 150.815 92.0707 150.729 91.7534C150.642 91.4362 150.44 91.1765 150.123 91.2631C149.229 91.4362 148.335 91.638 147.441 91.8689C147.095 91.9554 146.979 92.2438 147.066 92.6186C147.152 92.9648 147.383 93.0801 147.7 93.1091C147.758 93.1091 147.816 93.1091 147.873 93.1091C148.508 93.0513 148.508 93.0513 148.421 92.3879C148.594 92.3014 148.767 92.2726 149.027 92.1861Z" fill="#383838"/>
<path d="M151.766 104.79C151.766 105.944 151.132 106.52 149.949 106.347C149.199 106.261 148.449 106.145 147.728 105.944C146.834 105.713 146.546 105.107 146.719 104.213C146.892 103.377 147.469 102.944 148.334 103.059C149.055 103.146 149.805 103.261 150.526 103.405C151.363 103.579 151.766 104.069 151.766 104.79ZM148.392 103.867C148.392 103.896 148.392 103.896 148.392 103.925C148.334 103.925 148.276 103.925 148.219 103.925C147.671 103.925 147.411 104.098 147.353 104.502C147.296 104.963 147.584 105.165 147.959 105.222C148.796 105.367 149.632 105.482 150.468 105.569C150.843 105.626 151.132 105.396 151.161 104.992C151.189 104.588 150.959 104.386 150.613 104.3C149.863 104.127 149.113 104.011 148.392 103.867Z" fill="#383838"/>
<path d="M83.1523 82.8125C83.4119 82.8702 83.6716 82.9278 83.9022 83.0433C84.6521 83.4183 85.4309 83.7932 86.123 84.2546C86.7576 84.6873 86.8153 85.2929 86.4404 86.014C86.0654 86.735 85.5462 87.0812 84.8252 86.7927C83.9022 86.4178 83.037 85.9275 82.1717 85.4084C81.6526 85.091 81.5661 84.5142 81.768 83.9662C82.0564 83.1875 82.4889 82.8414 83.1523 82.8125ZM82.9216 83.5624C82.7774 83.6778 82.5755 83.822 82.4601 84.0239C82.2583 84.3411 82.4313 84.6585 82.7198 84.8026C83.4697 85.2064 84.2194 85.6103 84.9983 85.9852C85.3155 86.1294 85.6905 86.1006 85.8636 85.6968C86.0365 85.3219 85.9212 84.9757 85.5462 84.8026C84.854 84.4277 84.133 84.0816 83.4119 83.7067C83.3254 83.649 83.1813 83.649 82.9216 83.5624Z" fill="#383838"/>
<path d="M146.951 90.3112C146.114 90.3112 145.71 90.0228 145.48 89.3594C145.22 88.5807 145.278 88.0904 145.855 87.7155C146.806 87.0809 147.902 86.7637 149.027 86.6482C149.662 86.5906 150.065 87.0231 150.325 87.7443C150.527 88.4076 150.383 88.9557 149.835 89.3017C148.912 89.8785 147.873 90.1669 146.951 90.3112ZM146.749 89.619C147.643 89.3017 148.537 88.9845 149.402 88.6095C149.719 88.4942 149.777 88.1768 149.662 87.8596C149.546 87.5424 149.287 87.3405 148.97 87.427C148.075 87.6865 147.181 88.0039 146.316 88.3211C145.999 88.4364 145.912 88.7248 145.999 89.0421C146.172 89.3882 146.374 89.5325 146.749 89.619Z" fill="#383838"/>
<path d="M95.7266 69.0258C95.7554 68.1317 96.2746 67.8144 96.8514 67.5549C97.3129 67.3529 97.861 67.4394 98.2358 67.8721C98.9569 68.6796 99.476 69.6314 99.8221 70.6697C99.9664 71.1312 99.7644 71.6215 99.3606 71.9388C98.8126 72.3427 98.207 72.6599 97.6301 72.1984C96.6208 71.3331 96.0727 70.1507 95.7266 69.0258ZM97.3129 68.1605C96.6784 68.1605 96.3899 68.5931 96.6208 69.1123C96.9956 69.8622 97.3995 70.5832 97.832 71.2755C98.0339 71.6215 98.3801 71.7946 98.7838 71.5639C99.2165 71.3331 99.1588 70.9294 98.9857 70.6121C98.6107 69.891 98.207 69.1989 97.7744 68.5065C97.6301 68.3336 97.3995 68.2471 97.3129 68.1605Z" fill="#383838"/>
<path d="M147.7 81.9761C147.527 82.2645 147.412 82.6107 147.181 82.8126C146.373 83.5048 145.45 84.0528 144.412 84.3412C143.806 84.5143 143.345 84.2547 142.97 83.6201C142.595 82.9857 142.595 82.4088 143.028 81.9761C143.893 81.1397 144.902 80.5916 146.056 80.3032C146.777 80.1013 147.642 81.0531 147.7 81.9761ZM146.892 81.8608C146.892 81.255 146.518 80.909 146.056 81.1109C145.248 81.4858 144.441 81.9473 143.662 82.4088C143.316 82.6107 143.287 82.9567 143.489 83.3029C143.691 83.649 144.037 83.6778 144.326 83.5048C145.075 83.1298 145.825 82.6972 146.546 82.2645C146.719 82.178 146.835 81.9473 146.892 81.8608Z" fill="#383838"/>
<path d="M81.4218 114.625C81.3064 114.337 81.2198 114.106 81.1334 113.846C82.0851 113.471 83.0081 113.125 83.9311 112.779C84.1329 112.692 84.3636 112.606 84.5655 112.491C84.9116 112.317 85.0847 112.087 84.9404 111.683C84.7963 111.279 84.5079 111.164 84.1329 111.279C83.4408 111.51 82.7484 111.77 82.0563 112.029C81.5948 112.202 81.1333 112.375 80.643 112.548C80.5277 112.289 80.47 112.087 80.3546 111.798C81.2198 111.452 82.0851 111.135 82.9215 110.818C83.2965 110.674 83.7002 110.472 84.1041 110.443C84.4214 110.414 84.8251 110.529 85.0559 110.731C85.5173 111.135 85.6904 111.712 85.6904 112.317C85.6904 112.808 85.3443 113.067 84.9404 113.24C83.8157 113.702 82.6331 114.135 81.4218 114.625Z" fill="#383838"/>
<path d="M146.605 106.174C147.499 106.636 148.364 107.097 149.258 107.559C149.72 107.789 150.181 108.049 150.642 108.28C150.873 108.395 150.989 108.51 150.873 108.77C150.816 108.914 150.787 109.058 150.758 109.203C150.729 109.462 150.585 109.549 150.325 109.549C148.854 109.491 147.412 109.433 145.941 109.376C145.884 109.376 145.826 109.347 145.739 109.347C145.768 109.203 145.797 109.058 145.826 108.943C145.884 108.626 146.028 108.424 146.374 108.568C146.432 108.597 146.489 108.568 146.547 108.597C147.124 108.626 147.528 108.193 147.441 107.616C147.441 107.559 147.355 107.472 147.268 107.415C147.153 107.328 147.037 107.27 146.893 107.213C146.23 106.924 146.23 106.895 146.605 106.174ZM149.806 108.799C149.806 108.741 149.835 108.684 149.835 108.655C149.258 108.366 148.681 108.107 148.076 107.789C147.989 108.107 147.931 108.366 147.845 108.684C148.566 108.712 149.172 108.77 149.806 108.799Z" fill="#383838"/>
<path d="M83.1805 100.377C83.1805 100.55 83.1805 100.723 83.2095 100.867C83.2671 101.127 83.1229 101.242 82.8921 101.3C81.9403 101.56 81.9403 101.56 82.1423 102.627C82.3153 102.655 82.5173 102.742 82.7192 102.742C83.3826 102.742 83.469 102.742 83.3536 103.636C82.1134 103.434 80.8444 103.261 79.6042 103.059C79.4888 103.03 79.4023 103.03 79.2869 103.002C78.5082 102.915 78.4217 102.829 78.4794 102.021C78.4794 101.877 78.6236 101.675 78.7389 101.646C80.1522 101.213 81.5943 100.781 83.0076 100.348C83.0364 100.348 83.0941 100.377 83.1805 100.377ZM81.479 102.598C81.45 102.223 81.4212 101.992 81.3924 101.675C80.7002 101.848 80.0945 102.021 79.46 102.194C79.46 102.252 79.46 102.309 79.46 102.367C80.0945 102.425 80.7579 102.511 81.479 102.598Z" fill="#383838"/>
<path d="M90.3629 72.7462C89.9302 72.4578 89.8436 73.0058 89.5552 73.1499C89.3245 73.2942 89.3245 73.4672 89.4687 73.698C89.9879 74.5344 90.507 75.3707 90.9973 76.2072C91.2859 76.6687 91.5743 77.1302 91.8338 77.5917C92.0646 77.3897 92.2665 77.2167 92.4395 77.0724C92.2087 76.6975 92.0068 76.3515 91.805 76.0053C91.8915 75.9188 91.978 75.8322 92.0356 75.7457C92.5837 75.1977 92.5837 75.1977 93.2182 75.6304C93.3624 75.7169 93.4777 75.8034 93.622 75.9188C93.8239 75.7169 94.0258 75.5438 94.2566 75.3419C92.9586 74.4479 91.6896 73.5826 90.3629 72.7462ZM91.4588 75.515C91.055 74.9092 90.7089 74.3614 90.3341 73.8133C90.3629 73.7845 90.4205 73.7268 90.4494 73.698C90.9685 74.044 91.4877 74.419 92.0934 74.8228C91.8915 75.0535 91.7184 75.2554 91.4588 75.515Z" fill="#383838"/>
<path d="M137.664 70.0644C137.519 70.2663 137.404 70.4394 137.26 70.6412C136.798 70.3239 136.395 70.0355 135.933 69.7183C135.731 69.9779 135.501 70.2374 135.356 70.497C135.299 70.5835 135.385 70.8142 135.472 70.9007C135.76 71.1603 136.077 71.3622 136.423 71.593C136.279 71.7949 136.164 71.9391 136.02 72.1409C135.616 71.8525 135.212 71.593 134.779 71.2757C134.491 71.6796 134.231 72.0256 133.914 72.4294C134.376 72.7755 134.808 73.0927 135.241 73.4389C135.097 73.6408 134.981 73.8138 134.808 74.0157C134.145 73.5254 133.51 73.0639 132.789 72.5736C133.049 72.1987 133.309 71.8525 133.568 71.5065C134.174 70.67 134.779 69.8336 135.385 68.9971C135.587 68.7087 135.731 68.6799 136.02 68.9107C136.568 69.3145 137.116 69.6605 137.664 70.0644Z" fill="#383838"/>
<path d="M137.836 74.3901C138.067 74.592 138.24 74.7362 138.384 74.8804C137.577 75.9188 136.711 75.9764 135.932 75.0535C135.615 74.6786 135.529 74.2171 135.759 73.8133C136.307 72.8038 137.028 71.9673 137.951 71.2752C138.442 70.9002 139.019 71.0155 139.509 71.477C140.086 71.9963 140.201 72.4288 139.884 73.0057C139.797 73.1787 139.682 73.323 139.595 73.4672C139.019 73.2365 139.019 73.1499 139.192 72.6307C139.249 72.4288 139.192 72.0828 139.076 71.9963C138.903 71.8808 138.499 71.852 138.384 71.9673C137.721 72.6307 137.115 73.3518 136.538 74.0728C136.336 74.3324 136.365 74.6496 136.654 74.7939C136.827 74.8804 137.144 74.8516 137.375 74.7651C137.548 74.7651 137.663 74.5632 137.836 74.3901Z" fill="#383838"/>
<path d="M87.1318 115.115C87.2761 115.375 87.3626 115.577 87.5067 115.836C86.0647 116.557 84.6514 117.278 83.1517 118.028C82.8343 117.336 82.5459 116.701 82.2575 116.038C82.1999 115.923 82.2287 115.778 82.2575 115.663C82.4883 115.029 83.0362 114.769 83.642 114.625C84.1611 114.509 84.536 114.74 84.8245 115.173C84.9975 115.432 85.1129 115.692 85.2859 116.009C85.8916 115.721 86.4684 115.432 87.1318 115.115ZM84.7667 116.326C84.6514 116.096 84.5648 115.865 84.4207 115.692C84.2188 115.432 83.9592 115.346 83.642 115.432C83.3246 115.548 82.9209 115.663 82.9497 116.067C82.9497 116.355 83.1517 116.673 83.267 116.961C83.267 116.99 83.4401 116.99 83.5265 116.932C83.9304 116.759 84.3054 116.557 84.7667 116.326Z" fill="#383838"/>
<path d="M81.0469 87.7442C81.3929 87.8883 81.6813 88.0326 81.9697 88.0902C82.0563 88.1191 82.2581 87.9749 82.3159 87.8595C82.489 87.5134 82.6043 87.1674 82.7774 86.7635C82.9792 86.85 83.1811 86.9077 83.4118 86.9943C83.2677 87.398 83.1523 87.7442 82.9792 88.0902C82.8639 88.3498 82.9215 88.4941 83.2099 88.6094C83.758 88.8113 84.2771 89.042 84.854 89.2728C84.7675 89.5323 84.681 89.7631 84.5655 90.0227C83.0368 89.4459 81.566 88.8689 80.0374 88.2633C80.3258 87.5423 80.5565 86.8212 80.8738 86.1578C80.9314 86.0713 81.2775 86.1001 81.6237 86.0713C81.4218 86.7059 81.2487 87.1962 81.0469 87.7442Z" fill="#383838"/>
<path d="M151.594 93.6855C151.824 94.522 151.824 94.522 151.161 94.897C150.815 95.0988 150.44 95.3007 149.979 95.5891C150.527 95.7334 150.902 95.8775 151.305 95.9641C151.998 96.166 151.998 96.166 151.998 96.9736C150.411 96.5121 148.854 95.7334 147.094 96.4256C147.037 96.0506 147.008 95.8199 146.921 95.445C148.825 95.6757 150.152 94.5797 151.594 93.6855Z" fill="#383838"/>
<path d="M95.4389 74.4481C95.237 74.6212 95.0352 74.7653 94.8044 74.9673C93.968 73.8712 93.1316 72.8329 92.2663 71.708C91.9779 71.9101 91.7183 72.1119 91.4011 72.3138C91.2568 72.1407 91.1415 71.9677 90.9972 71.7658C91.776 71.1601 92.5258 70.5833 93.3047 69.9775C93.4488 70.1506 93.5641 70.3237 93.7372 70.5256C93.4776 70.7563 93.2181 70.9871 92.9297 71.2177C93.766 72.2849 94.5737 73.3521 95.4389 74.4481Z" fill="#383838"/>
<path d="M134.952 68.1603C134.663 68.8237 134.663 68.8525 134.144 68.5065C133.769 68.2757 133.625 68.3622 133.452 68.7084C132.875 69.7467 132.269 70.7561 131.664 71.8522C131.433 71.7079 131.202 71.5926 130.943 71.4484C131.635 70.237 132.298 69.0833 132.99 67.8719C132.673 67.6701 132.414 67.5258 132.096 67.3239C132.212 67.122 132.298 66.9489 132.414 66.7183C133.279 67.2086 134.115 67.6701 134.952 68.1603Z" fill="#383838"/>
<path d="M145.652 87.3694C145.393 87.4847 145.22 87.5425 144.989 87.6578C144.643 86.9079 144.326 86.1868 143.979 85.4081C145.479 84.7447 146.921 84.0813 148.421 83.418C148.537 83.6776 148.623 83.8795 148.738 84.1679C148.104 84.4563 147.498 84.7447 146.864 85.0331C146.373 85.264 145.883 85.4946 145.393 85.6677C145.018 85.8118 145.018 85.9849 145.162 86.2733C145.364 86.6195 145.479 86.9945 145.652 87.3694Z" fill="#383838"/>
<path d="M82.4023 106.434C82.2004 105.771 82.2004 105.8 82.7772 105.627C82.9215 105.569 83.0368 105.367 83.1522 105.223C82.9791 105.136 82.806 104.934 82.6619 104.934C81.3929 105.078 80.1238 105.281 78.7682 105.482C78.7394 105.252 78.7105 104.992 78.6528 104.704C79.4027 104.588 80.1238 104.444 80.8737 104.329C81.4217 104.242 81.9985 104.184 82.5753 104.098C83.2387 104.011 83.5849 104.3 83.7578 105.021C83.9021 105.627 83.6137 106.146 83.0368 106.29C82.835 106.376 82.6041 106.376 82.4023 106.434Z" fill="#383838"/>
<path d="M83.6137 94.2626C83.5272 95.0991 83.6713 95.1279 82.7772 94.9548C81.5658 94.7241 80.3257 94.4933 79.1143 94.3202C78.7105 94.2626 78.7682 94.003 78.797 93.7434C78.8259 93.455 78.9701 93.4262 79.2297 93.4839C80.7006 93.7434 82.1427 94.003 83.6137 94.2626Z" fill="#383838"/>
<path d="M93.7363 69.689C93.9959 69.516 94.169 69.3717 94.3997 69.2275C95.3515 70.5253 96.2745 71.8233 97.2263 73.15C96.9955 73.3231 96.8224 73.4673 96.5629 73.6403C95.6111 72.3136 94.6881 71.0156 93.7363 69.689Z" fill="#383838"/>
<path d="M127.078 71.3039C126.934 70.756 126.674 70.208 126.674 69.6887C126.674 67.9294 126.79 66.1701 126.847 64.353C127.02 64.353 127.164 64.353 127.28 64.353C127.28 66.6892 127.28 68.9678 127.28 71.2751C127.222 71.2751 127.164 71.2751 127.078 71.3039Z" fill="#383838"/>
<path d="M132.385 128.873C132.327 128.527 132.096 128.354 131.75 128.412C130.712 128.585 129.673 128.758 128.577 128.96C128.664 129.421 128.75 129.796 128.837 130.287C129.933 130.056 130.942 129.825 131.952 129.594C132.356 129.537 132.471 129.248 132.385 128.873Z" fill="#383838"/>
<path d="M100.687 128.902C99.8789 128.642 99.0136 128.469 98.1773 128.267C98.0908 128.238 97.9177 128.354 97.9177 128.411C97.7734 128.988 97.6581 129.565 97.485 130.228C98.4368 130.401 99.331 130.603 100.254 130.748C100.831 130.834 101.119 130.575 101.263 130.027C101.379 129.479 101.206 129.075 100.687 128.902Z" fill="#383838"/>
<path d="M132.673 131.757C131.548 131.93 130.423 132.132 129.241 132.305C129.356 132.853 129.443 133.315 129.529 133.834C129.76 133.805 129.904 133.776 130.048 133.747C131 133.545 131.981 133.344 132.933 133.113C133.307 133.026 133.452 132.738 133.394 132.363C133.307 131.988 133.134 131.7 132.673 131.757Z" fill="#383838"/>
<path d="M162.669 144.13C160.506 139.054 158.314 134.007 156.15 128.93C155.977 128.556 155.775 128.498 155.401 128.527C154.016 128.671 152.603 128.758 151.218 128.902C150.872 128.93 150.728 128.786 150.613 128.498C149.661 126.335 148.709 124.2 147.728 122.037C147.642 121.864 147.527 121.662 147.354 121.605C146.661 121.374 145.94 121.114 145.219 121.028C143.431 120.826 141.643 121.085 139.883 121.432C135.73 122.297 131.577 123.191 127.424 123.999C125.866 124.316 124.251 124.489 122.665 124.691C121.338 124.864 120.04 125.008 118.713 125.123C117.416 125.239 116.118 125.412 114.849 125.325C111.907 125.123 108.965 124.864 106.023 124.489C103.369 124.143 100.745 123.624 98.1202 123.133C94.6592 122.47 91.1982 121.691 87.7083 121.057C86.2086 120.797 84.6799 120.826 83.1801 121.345C82.7186 121.518 82.3725 121.749 82.1706 122.239C81.2765 124.345 80.3247 126.421 79.4018 128.498C79.3153 128.7 79.2287 128.902 78.9115 128.873C77.4982 128.729 76.085 128.671 74.6717 128.498C74.1814 128.44 73.9507 128.556 73.7488 129.017C72.1336 132.853 70.4608 136.689 68.8168 140.525C68.2399 141.852 67.692 143.179 67.1151 144.534C67.1728 144.534 67.2305 144.534 67.2305 144.534C67.317 144.476 67.3747 144.419 67.4612 144.39C68.8745 143.409 70.4319 142.948 72.1336 143.121C73.4315 143.236 74.6429 143.669 75.8542 144.188C77.3252 144.823 78.7961 145.486 80.2671 146.063C81.4496 146.524 82.6898 146.553 83.7282 145.717C84.3338 145.226 84.8529 144.592 85.2568 143.928C86.3815 142.14 87.4198 140.294 88.4582 138.477C88.6312 138.16 88.8043 138.073 89.1503 138.218C90.1599 138.593 91.1694 138.967 92.2077 139.256C95.0342 140.006 97.8895 140.583 100.803 141.015C104.091 141.506 107.407 141.823 110.753 141.881C114.503 141.938 118.281 141.881 122.059 141.708C124.597 141.592 127.135 141.304 129.645 140.929C133.481 140.381 137.259 139.602 140.893 138.218C141.152 138.102 141.297 138.189 141.441 138.448C141.787 139.083 142.162 139.689 142.508 140.294C143.402 141.794 144.267 143.351 145.248 144.794C146.171 146.178 147.555 146.64 149.171 146.207C149.863 146.034 150.555 145.774 151.218 145.486C152.862 144.823 154.478 144.073 156.122 143.467C157.823 142.861 159.583 142.948 161.255 143.698C161.775 143.928 162.236 144.246 162.784 144.534C162.755 144.39 162.726 144.274 162.669 144.13ZM105.215 131.238C104.84 132.449 103.946 133.055 102.735 133.228C101.552 133.401 100.399 133.084 99.274 132.824C98.5241 132.651 97.7742 132.478 96.9955 132.305C96.7647 133.314 96.5052 134.295 96.3032 135.247C96.2456 135.564 96.1013 135.622 95.8129 135.535C94.7457 135.276 93.6498 135.016 92.4672 134.757C93.1883 131.584 93.9382 128.44 94.6592 125.239C95.9859 125.556 97.2262 125.844 98.4952 126.133C99.7354 126.421 100.976 126.71 102.216 126.998C103.023 127.2 103.773 127.546 104.379 128.094C105.389 128.988 105.59 130.027 105.215 131.238ZM110.407 137.698C109.888 137.67 109.455 137.641 108.994 137.583C108.33 137.525 107.667 137.497 107.004 137.468C106.715 137.439 106.6 137.352 106.6 137.006C106.802 134.526 106.946 132.017 107.119 129.536C107.148 129.046 107.177 128.556 107.234 128.065C107.263 127.95 107.436 127.719 107.523 127.719C108.676 127.777 109.83 127.863 111.07 127.95C110.84 131.209 110.609 134.411 110.407 137.698ZM123.444 130.373C122.463 130.373 121.511 130.402 120.559 130.373C120.127 130.373 119.983 130.488 119.983 130.95C120.069 132.94 120.127 134.958 120.184 136.949C120.184 137.15 120.184 137.381 120.184 137.612C120.04 137.641 119.925 137.67 119.809 137.67C118.829 137.698 117.848 137.727 116.839 137.785C116.464 137.814 116.377 137.67 116.348 137.324C116.291 135.276 116.233 133.228 116.146 131.18C116.146 131.007 116.118 130.805 116.118 130.632C114.964 130.632 113.81 130.632 112.599 130.632C112.57 129.882 112.541 129.132 112.57 128.354C112.57 128.296 112.801 128.181 112.945 128.152C114.387 128.094 115.829 128.036 117.3 127.979C119.175 127.921 121.021 127.863 122.896 127.777C123.299 127.748 123.444 127.892 123.415 128.296C123.415 128.902 123.444 129.565 123.444 130.373ZM137.432 133.459C137.057 134.584 136.105 135.045 135.038 135.276C133.048 135.708 131.029 136.083 129.01 136.487C128.116 136.66 127.193 136.833 126.241 137.035C126.068 136.141 125.895 135.305 125.722 134.468C125.289 132.305 124.886 130.113 124.453 127.95C124.395 127.604 124.424 127.431 124.828 127.373C127.481 126.883 130.106 126.364 132.759 125.873C133.25 125.787 133.74 125.816 134.23 125.816C135.067 125.844 135.701 126.248 136.019 127.056C136.365 127.95 136.394 128.786 135.759 129.594C135.673 129.709 135.557 129.825 135.413 129.969C137.143 130.459 137.951 131.901 137.432 133.459Z" fill="#383838"/>
<path d="M141.527 138.362C141.527 138.362 150.786 135.709 154.333 136.805C154.333 136.805 156.439 139.574 150.872 141.968C146.632 143.496 144.787 144.044 144.787 144.044" fill="#383838"/>
<path d="M88.6886 138.16C88.6886 138.16 79.4303 135.507 75.8827 136.603C75.8827 136.603 73.7773 139.372 79.3438 141.765C83.5835 143.294 85.4295 143.842 85.4295 143.842" fill="#383838"/>
<path d="M144.296 103.406C144.094 104.184 143.892 104.963 143.69 105.771C143.632 106.059 143.488 106.203 143.171 106.232C140.748 106.347 138.325 106.492 135.931 106.636C134.028 106.751 132.124 106.867 130.221 106.982C129.442 107.04 128.692 107.069 127.913 107.126C127.798 107.472 127.885 107.617 128.231 107.588C129.586 107.53 130.942 107.472 132.297 107.415C134.23 107.328 136.133 107.213 138.066 107.097C139.479 107.011 140.863 106.924 142.277 106.867C142.623 106.838 142.969 106.867 143.402 106.867C143.286 107.27 143.2 107.645 143.055 108.02C142.796 108.741 142.536 109.462 142.219 110.183C142.161 110.328 141.931 110.501 141.757 110.53C139.393 110.645 137.056 110.76 134.691 110.847C132.557 110.933 130.423 111.02 128.259 111.135C128.144 111.135 128.029 111.164 127.856 111.193C127.856 111.366 127.856 111.51 127.856 111.741C132.499 111.539 137.114 111.337 141.786 111.106C141.7 111.366 141.642 111.568 141.556 111.741C141.036 112.779 140.46 113.789 139.94 114.798C139.796 115.087 139.594 115.202 139.248 115.202C135.614 115.289 131.98 115.375 128.317 115.462C127.885 115.462 127.885 115.663 127.971 116.038C131.749 115.923 135.528 115.837 139.45 115.721C138.527 116.875 137.691 117.942 136.854 119.009C136.537 118.951 136.22 118.865 135.903 118.894C134.893 118.923 133.884 119.038 132.874 119.038C131.634 119.067 130.394 119.009 129.125 119.038C128.75 119.038 128.375 119.096 128 119.182C127.885 119.211 127.798 119.413 127.625 119.615C128.49 119.615 129.182 119.615 129.903 119.615C132.067 119.586 134.201 119.528 136.364 119.499C135.989 119.903 135.643 120.278 135.268 120.682C135.037 120.913 134.807 121.172 134.576 121.403C134.518 121.461 134.461 121.49 134.374 121.49C132.442 121.865 130.509 122.268 128.577 122.614C127.019 122.903 125.462 123.105 123.904 123.364C123.875 123.364 123.818 123.335 123.76 123.335C123.76 115.837 123.76 108.338 123.76 100.81C125.058 100.723 126.356 100.637 127.711 100.55C127.711 100.781 127.74 100.925 127.74 101.098C127.74 102.021 127.74 102.915 127.74 103.838C127.74 104.069 127.769 104.242 128.058 104.213C129.269 104.127 130.48 104.04 131.692 103.954C132.24 103.925 132.759 103.867 133.307 103.838C134.432 103.78 135.585 103.723 136.71 103.636C138.296 103.521 139.854 103.406 141.44 103.29C142.132 103.233 142.825 103.233 143.517 103.175C143.748 103.146 144.007 103.117 144.238 103.088C144.296 103.146 144.296 103.261 144.296 103.406Z" fill="#383838"/>
<path d="M124.366 50.9707C124.366 51.9225 124.366 52.8454 124.366 53.8261C121.885 53.9991 119.549 54.6625 117.242 55.5278C114.934 56.393 112.8 57.489 110.839 58.9888C110.81 58.9311 110.752 58.9023 110.724 58.8446C110.839 58.7004 110.954 58.585 111.098 58.4408C112.425 57.2294 113.723 55.9604 115.28 55.0086C117.934 53.3646 120.732 52.0379 123.76 51.2303C123.904 51.2014 124.048 51.0572 124.164 50.9707C124.25 50.9707 124.308 50.9707 124.366 50.9707Z" fill="#383838"/>
<path d="M104.407 77.419C104.147 70.7564 107.839 62.8825 114.934 58.4985C115.684 60.0849 116.492 61.6423 117.155 63.2575C117.818 64.8726 118.338 66.5166 118.914 68.1607C117.963 68.4491 116.982 68.7086 116.001 69.0259C115.049 69.3431 114.098 69.6893 113.175 70.0643C111.531 70.7564 109.916 71.5639 108.531 72.66C107.493 73.4675 106.541 74.3617 105.647 75.3423C105.157 75.8903 104.839 76.6403 104.407 77.419Z" fill="#383838"/>
<path d="M106.772 115.75C108.156 115.433 109.512 115.086 110.925 114.856C112.137 114.654 113.348 114.51 114.559 114.423C115.915 114.337 117.271 114.365 118.626 114.308C119.261 114.279 119.924 114.25 120.559 114.221C120.818 114.221 120.933 114.308 120.933 114.567C120.933 117.538 120.933 120.538 120.933 123.508C120.933 123.537 120.905 123.595 120.876 123.681C119.29 123.826 117.703 123.941 116.002 124.085C116.002 121.662 116.002 119.326 116.002 116.961C114.848 116.529 113.781 115.981 112.656 115.75C111.675 115.548 110.608 115.663 109.57 115.663C109.166 115.663 108.733 115.692 108.33 115.721C107.81 115.75 107.291 115.779 106.772 115.779C106.801 115.779 106.772 115.779 106.772 115.75Z" fill="#383838"/>
<path d="M120.933 107.328C120.933 108.136 120.933 108.915 120.933 109.693C120.933 109.809 120.731 109.953 120.616 109.982C119.607 110.097 118.597 110.184 117.588 110.27C116.174 110.414 114.79 110.53 113.377 110.732C111.79 110.933 110.204 111.193 108.618 111.481C107.378 111.712 106.195 112.174 105.041 112.751C104.84 112.866 104.609 112.952 104.32 113.097C104.32 112.404 104.291 111.77 104.349 111.164C104.378 110.962 104.58 110.76 104.782 110.616C106.137 109.636 107.724 109.232 109.31 108.828C110.954 108.424 112.627 108.078 114.3 107.732C115.021 107.588 115.771 107.588 116.492 107.53C117.876 107.444 119.261 107.386 120.645 107.328C120.731 107.271 120.818 107.299 120.933 107.328Z" fill="#383838"/>
<path d="M104.32 95.6183C104.378 95.0127 104.378 94.407 104.464 93.8012C104.522 93.311 104.839 92.9649 105.214 92.6476C105.993 92.0131 106.714 91.292 107.521 90.7152C108.992 89.6481 110.694 88.927 112.425 88.4079C114.184 87.8886 115.972 87.3983 117.76 86.9658C118.77 86.7349 119.808 86.7062 120.904 86.562C120.904 87.5426 120.904 88.4367 120.875 89.3019C120.875 89.3884 120.616 89.5327 120.472 89.5615C118.885 89.7634 117.299 89.8787 115.741 90.1672C114.069 90.4845 112.396 90.8883 110.838 91.6092C109.829 92.0707 108.79 92.4457 107.81 92.9649C106.627 93.5706 105.618 94.407 104.724 95.3588C104.637 95.4741 104.522 95.5607 104.406 95.6472C104.406 95.6472 104.349 95.6183 104.32 95.6183Z" fill="#383838"/>
<path d="M120.183 72.5444C120.356 73.525 120.53 74.4192 120.703 75.371C119.895 75.5439 119.145 75.717 118.395 75.8324C116.492 76.1208 114.675 76.64 112.915 77.3899C111.473 78.0244 110.031 78.6877 108.676 79.4954C107.003 80.476 105.618 81.8315 104.666 83.562C104.609 83.6486 104.58 83.7063 104.522 83.7929C104.493 83.8217 104.464 83.8506 104.349 83.9659C104.436 83.1295 104.176 82.3508 104.724 81.6297C105.128 81.0816 105.33 80.3606 105.676 79.755C106.628 78.2264 108.041 77.2169 109.512 76.2651C112.079 74.5922 114.963 73.7846 117.847 72.9194C118.568 72.7463 119.376 72.6887 120.183 72.5444Z" fill="#383838"/>
<path d="M104.379 90.1092C104.379 89.4746 104.234 88.869 104.407 88.4365C104.725 87.6865 105.157 86.9366 105.734 86.3598C108.013 84.0235 110.724 82.3218 113.81 81.2836C115.569 80.7068 117.386 80.2741 119.174 79.8126C119.723 79.6685 120.299 79.6973 120.905 79.6685C120.905 80.7068 120.905 81.6586 120.905 82.6968C120.213 82.7833 119.521 82.8988 118.828 82.9564C116.81 83.1583 114.819 83.591 112.916 84.3409C111.676 84.8312 110.407 85.3215 109.224 85.9271C107.58 86.7636 106.138 87.8307 105.042 89.3305C104.869 89.5612 104.667 89.7631 104.379 90.1092Z" fill="#383838"/>
<path d="M120.934 100.521C120.934 101.416 120.934 102.137 120.934 102.858C120.934 103.117 120.847 103.319 120.501 103.319C119.751 103.348 118.972 103.435 118.223 103.463C116.031 103.521 113.896 103.867 111.791 104.357C110.377 104.704 108.964 105.021 107.637 105.54C106.541 105.944 105.503 106.607 104.465 107.155C104.032 106.117 104.407 104.905 105.474 104.242C107.407 103.031 109.483 102.137 111.733 101.733C113.579 101.416 115.454 101.127 117.3 100.896C118.453 100.723 119.665 100.637 120.934 100.521Z" fill="#383838"/>
<path d="M104.349 101.618C104.349 100.868 104.349 100.291 104.349 99.6853C104.349 99.6276 104.378 99.541 104.407 99.4833C105.878 97.8683 107.579 96.6281 109.656 95.8781C111.617 95.1858 113.579 94.5514 115.655 94.2342C117.27 93.9746 118.914 93.8015 120.558 93.5708C120.674 93.5708 120.76 93.5708 120.933 93.5996C120.933 94.4361 120.933 95.2724 120.933 96.1088C120.933 96.1954 120.789 96.3396 120.674 96.3684C119.174 96.5415 117.674 96.6281 116.203 96.8587C114.934 97.0606 113.665 97.349 112.425 97.6952C110.839 98.1277 109.223 98.4739 107.753 99.2526C106.541 99.8294 105.359 100.493 104.349 101.618Z" fill="#383838"/>
<path d="M117.472 62.3923C117.097 61.5558 116.722 60.7771 116.376 59.9984C118.972 59.1331 121.539 58.2967 124.337 58.3544C124.337 59.2773 124.337 60.1426 124.337 61.1232C121.972 60.979 119.751 61.6424 117.472 62.3923Z" fill="#383838"/>
<path d="M124.366 64.5552C124.366 65.3339 124.395 66.0262 124.337 66.7183C124.337 66.8625 124.049 67.0356 123.876 67.0644C122.866 67.2664 121.886 67.4683 120.876 67.6124C120.501 67.6701 120.126 67.6989 119.722 67.6989C119.578 67.6989 119.376 67.5259 119.319 67.4105C119.117 66.8625 118.944 66.3146 118.771 65.7088C120.588 65.0454 122.434 64.8148 124.366 64.5552Z" fill="#383838"/>
</g>
<path d="M74.3646 156.08V158.591H77.2373V159.736H74.3646V162.358H77.5964V163.503H73V154.935H77.5964V156.08H74.3646Z" fill="#383838"/>
<path d="M87.261 156.61C87.7797 156.61 88.2425 156.72 88.6495 156.942C89.0644 157.163 89.3876 157.492 89.619 157.927C89.8584 158.362 89.9781 158.887 89.9781 159.502V163.503H88.6255V159.711C88.6255 159.104 88.4779 158.641 88.1826 158.321C87.8874 157.992 87.4844 157.828 86.9737 157.828C86.463 157.828 86.056 157.992 85.7528 158.321C85.4575 158.641 85.3099 159.104 85.3099 159.711V163.503H83.9573V159.711C83.9573 159.104 83.8097 158.641 83.5144 158.321C83.2192 157.992 82.8162 157.828 82.3055 157.828C81.7948 157.828 81.3878 157.992 81.0846 158.321C80.7893 158.641 80.6417 159.104 80.6417 159.711V163.503H79.2771V156.72H80.6417V157.496C80.8651 157.217 81.1484 156.999 81.4915 156.843C81.8347 156.688 82.2017 156.61 82.5928 156.61C83.1194 156.61 83.5902 156.724 84.0052 156.954C84.4201 157.184 84.7393 157.516 84.9628 157.951C85.1623 157.541 85.4735 157.217 85.8964 156.979C86.3194 156.733 86.7742 156.61 87.261 156.61Z" fill="#383838"/>
<path d="M93.079 157.717C93.3105 157.406 93.6257 157.143 94.0247 156.93C94.4236 156.716 94.8745 156.61 95.3772 156.61C95.9518 156.61 96.4745 156.757 96.9453 157.053C97.4241 157.34 97.7991 157.746 98.0704 158.271C98.3418 158.796 98.4774 159.4 98.4774 160.081C98.4774 160.762 98.3418 161.373 98.0704 161.915C97.7991 162.448 97.4241 162.867 96.9453 163.17C96.4745 163.466 95.9518 163.613 95.3772 163.613C94.8745 163.613 94.4276 163.511 94.0366 163.306C93.6456 163.092 93.3264 162.83 93.079 162.518V166.728H91.7145V156.72H93.079V157.717ZM97.0889 160.081C97.0889 159.613 96.9932 159.211 96.8016 158.874C96.6181 158.53 96.3707 158.271 96.0595 158.099C95.7563 157.918 95.4291 157.828 95.078 157.828C94.7349 157.828 94.4077 157.918 94.0965 158.099C93.7932 158.28 93.5459 158.542 93.3543 158.887C93.1708 159.231 93.079 159.638 93.079 160.105C93.079 160.573 93.1708 160.983 93.3543 161.336C93.5459 161.681 93.7932 161.944 94.0965 162.124C94.4077 162.305 94.7349 162.395 95.078 162.395C95.4291 162.395 95.7563 162.305 96.0595 162.124C96.3707 161.935 96.6181 161.665 96.8016 161.312C96.9932 160.959 97.0889 160.548 97.0889 160.081Z" fill="#383838"/>
<path d="M101.191 154.394V163.503H99.8268V154.394H101.191Z" fill="#383838"/>
<path d="M105.844 163.613C105.221 163.613 104.659 163.47 104.156 163.183C103.653 162.887 103.258 162.477 102.971 161.952C102.684 161.418 102.54 160.803 102.54 160.105C102.54 159.416 102.688 158.805 102.983 158.271C103.278 157.738 103.681 157.328 104.192 157.04C104.703 156.753 105.273 156.61 105.904 156.61C106.534 156.61 107.105 156.753 107.615 157.04C108.126 157.328 108.529 157.738 108.824 158.271C109.119 158.805 109.267 159.416 109.267 160.105C109.267 160.795 109.115 161.406 108.812 161.939C108.509 162.473 108.094 162.887 107.567 163.183C107.049 163.47 106.474 163.613 105.844 163.613ZM105.844 162.395C106.195 162.395 106.522 162.309 106.825 162.136C107.136 161.964 107.388 161.706 107.579 161.361C107.771 161.016 107.867 160.598 107.867 160.105C107.867 159.613 107.775 159.199 107.591 158.862C107.408 158.517 107.164 158.259 106.861 158.087C106.558 157.914 106.231 157.828 105.88 157.828C105.528 157.828 105.201 157.914 104.898 158.087C104.603 158.259 104.367 158.517 104.192 158.862C104.016 159.199 103.929 159.613 103.929 160.105C103.929 160.836 104.108 161.402 104.467 161.804C104.834 162.198 105.293 162.395 105.844 162.395Z" fill="#383838"/>
<path d="M116.553 156.72L112.507 166.691H111.095L112.435 163.392L109.838 156.72H111.358L113.213 161.89L115.141 156.72H116.553Z" fill="#383838"/>
<path d="M123.628 159.945C123.628 160.2 123.612 160.43 123.58 160.635H118.54C118.58 161.176 118.776 161.611 119.127 161.939C119.478 162.268 119.909 162.432 120.42 162.432C121.154 162.432 121.672 162.116 121.976 161.484H123.448C123.248 162.108 122.885 162.621 122.359 163.023C121.84 163.417 121.194 163.613 120.42 163.613C119.789 163.613 119.223 163.47 118.72 163.183C118.225 162.887 117.834 162.477 117.547 161.952C117.268 161.418 117.128 160.803 117.128 160.105C117.128 159.408 117.264 158.796 117.535 158.271C117.814 157.738 118.201 157.328 118.696 157.04C119.199 156.753 119.773 156.61 120.42 156.61C121.042 156.61 121.597 156.749 122.083 157.028C122.57 157.307 122.949 157.701 123.221 158.21C123.492 158.71 123.628 159.289 123.628 159.945ZM122.203 159.502C122.195 158.985 122.016 158.571 121.664 158.259C121.313 157.947 120.878 157.791 120.36 157.791C119.889 157.791 119.486 157.947 119.151 158.259C118.816 158.563 118.616 158.977 118.552 159.502H122.203Z" fill="#383838"/>
<path d="M131.015 159.945C131.015 160.2 130.999 160.43 130.967 160.635H125.928C125.968 161.176 126.163 161.611 126.514 161.939C126.866 162.268 127.297 162.432 127.807 162.432C128.541 162.432 129.06 162.116 129.363 161.484H130.836C130.636 162.108 130.273 162.621 129.746 163.023C129.228 163.417 128.581 163.613 127.807 163.613C127.177 163.613 126.61 163.47 126.108 163.183C125.613 162.887 125.222 162.477 124.934 161.952C124.655 161.418 124.516 160.803 124.516 160.105C124.516 159.408 124.651 158.796 124.923 158.271C125.202 157.738 125.589 157.328 126.084 157.04C126.586 156.753 127.161 156.61 127.807 156.61C128.43 156.61 128.984 156.749 129.471 157.028C129.958 157.307 130.337 157.701 130.608 158.21C130.879 158.71 131.015 159.289 131.015 159.945ZM129.591 159.502C129.583 158.985 129.403 158.571 129.052 158.259C128.701 157.947 128.266 157.791 127.747 157.791C127.277 157.791 126.874 157.947 126.538 158.259C126.203 158.563 126.004 158.977 125.94 159.502H129.591Z" fill="#383838"/>
<path d="M138.208 163.589C137.65 163.589 137.147 163.49 136.7 163.293C136.253 163.088 135.902 162.801 135.647 162.432C135.392 162.063 135.264 161.632 135.264 161.139H136.724C136.756 161.509 136.896 161.812 137.143 162.05C137.398 162.288 137.754 162.407 138.208 162.407C138.679 162.407 139.046 162.292 139.31 162.063C139.573 161.825 139.705 161.521 139.705 161.152C139.705 160.864 139.621 160.631 139.453 160.45C139.294 160.269 139.09 160.13 138.843 160.032C138.603 159.933 138.268 159.826 137.837 159.711C137.295 159.564 136.852 159.416 136.509 159.268C136.174 159.112 135.886 158.874 135.647 158.554C135.407 158.234 135.288 157.808 135.288 157.274C135.288 156.782 135.407 156.351 135.647 155.982C135.886 155.613 136.221 155.329 136.652 155.132C137.083 154.935 137.582 154.837 138.149 154.837C138.955 154.837 139.613 155.046 140.124 155.465C140.642 155.875 140.93 156.441 140.985 157.163H139.477C139.453 156.852 139.31 156.585 139.046 156.363C138.783 156.142 138.436 156.031 138.005 156.031C137.614 156.031 137.295 156.134 137.047 156.339C136.8 156.544 136.676 156.839 136.676 157.225C136.676 157.488 136.752 157.705 136.904 157.877C137.063 158.042 137.263 158.173 137.502 158.271C137.742 158.37 138.069 158.476 138.484 158.591C139.034 158.747 139.481 158.903 139.824 159.059C140.175 159.215 140.471 159.457 140.71 159.785C140.957 160.105 141.081 160.536 141.081 161.078C141.081 161.513 140.965 161.923 140.734 162.309C140.511 162.694 140.179 163.006 139.741 163.244C139.31 163.474 138.799 163.589 138.208 163.589Z" fill="#383838"/>
<path d="M148.736 159.945C148.736 160.2 148.72 160.43 148.688 160.635H143.649C143.689 161.176 143.884 161.611 144.235 161.939C144.587 162.268 145.017 162.432 145.528 162.432C146.262 162.432 146.781 162.116 147.084 161.484H148.556C148.357 162.108 147.994 162.621 147.467 163.023C146.949 163.417 146.302 163.613 145.528 163.613C144.898 163.613 144.331 163.47 143.828 163.183C143.334 162.887 142.943 162.477 142.655 161.952C142.376 161.418 142.236 160.803 142.236 160.105C142.236 159.408 142.372 158.796 142.643 158.271C142.923 157.738 143.31 157.328 143.804 157.04C144.307 156.753 144.882 156.61 145.528 156.61C146.151 156.61 146.705 156.749 147.192 157.028C147.679 157.307 148.058 157.701 148.329 158.21C148.6 158.71 148.736 159.289 148.736 159.945ZM147.312 159.502C147.304 158.985 147.124 158.571 146.773 158.259C146.422 157.947 145.987 157.791 145.468 157.791C144.997 157.791 144.594 157.947 144.259 158.259C143.924 158.563 143.725 158.977 143.661 159.502H147.312Z" fill="#383838"/>
<path d="M151.443 154.394V163.503H150.079V154.394H151.443Z" fill="#383838"/>
<path d="M156 157.865H154.779V163.503H153.403V157.865H152.625V156.72H153.403V156.24C153.403 155.461 153.602 154.894 154.001 154.542C154.408 154.181 155.042 154 155.904 154V155.169C155.489 155.169 155.198 155.251 155.03 155.416C154.863 155.571 154.779 155.846 154.779 156.24V156.72H156V157.865Z" fill="#383838"/>
<path d="M95.9343 178.975C95.3757 178.975 94.8729 178.877 94.4261 178.68C93.9792 178.475 93.6281 178.188 93.3727 177.818C93.1174 177.449 92.9897 177.018 92.9897 176.526H94.45C94.4819 176.895 94.6216 177.199 94.8689 177.437C95.1243 177.675 95.4794 177.794 95.9343 177.794C96.4051 177.794 96.7721 177.679 97.0355 177.449C97.2988 177.211 97.4305 176.907 97.4305 176.538C97.4305 176.251 97.3467 176.017 97.1791 175.837C97.0195 175.656 96.816 175.516 96.5687 175.418C96.3293 175.32 95.9941 175.213 95.5632 175.098C95.0206 174.95 94.5777 174.803 94.2345 174.655C93.8994 174.499 93.6121 174.261 93.3727 173.941C93.1333 173.621 93.0136 173.194 93.0136 172.661C93.0136 172.168 93.1333 171.738 93.3727 171.368C93.6121 170.999 93.9473 170.716 94.3782 170.519C94.8091 170.322 95.3078 170.224 95.8744 170.224C96.6804 170.224 97.3387 170.433 97.8494 170.851C98.3681 171.262 98.6554 171.828 98.7112 172.55H97.2031C97.1791 172.238 97.0355 171.971 96.7721 171.75C96.5088 171.528 96.1617 171.418 95.7308 171.418C95.3398 171.418 95.0206 171.52 94.7732 171.725C94.5258 171.93 94.4021 172.226 94.4021 172.612C94.4021 172.874 94.4779 173.092 94.6295 173.264C94.7891 173.428 94.9886 173.559 95.228 173.658C95.4674 173.756 95.7946 173.863 96.2096 173.978C96.7602 174.134 97.207 174.29 97.5502 174.446C97.9013 174.602 98.1965 174.844 98.4359 175.172C98.6833 175.492 98.807 175.923 98.807 176.464C98.807 176.899 98.6913 177.31 98.4599 177.695C98.2364 178.081 97.9053 178.393 97.4664 178.631C97.0355 178.86 96.5248 178.975 95.9343 178.975Z" fill="#383838"/>
<path d="M106.462 175.332C106.462 175.586 106.446 175.816 106.414 176.021H101.375C101.415 176.563 101.61 176.998 101.961 177.326C102.312 177.654 102.743 177.818 103.254 177.818C103.988 177.818 104.507 177.502 104.81 176.871H106.282C106.083 177.494 105.72 178.007 105.193 178.409C104.674 178.803 104.028 179 103.254 179C102.624 179 102.057 178.856 101.554 178.569C101.06 178.274 100.668 177.863 100.381 177.338C100.102 176.805 99.9623 176.189 99.9623 175.492C99.9623 174.794 100.098 174.183 100.369 173.658C100.649 173.124 101.036 172.714 101.53 172.427C102.033 172.14 102.608 171.996 103.254 171.996C103.876 171.996 104.431 172.136 104.918 172.415C105.405 172.694 105.784 173.087 106.055 173.596C106.326 174.097 106.462 174.675 106.462 175.332ZM105.037 174.889C105.029 174.372 104.85 173.957 104.499 173.645C104.148 173.334 103.713 173.178 103.194 173.178C102.723 173.178 102.32 173.334 101.985 173.645C101.65 173.949 101.451 174.364 101.387 174.889H105.037Z" fill="#383838"/>
<path d="M109.169 173.092C109.369 172.747 109.632 172.48 109.959 172.291C110.294 172.095 110.689 171.996 111.144 171.996V173.449H110.797C110.263 173.449 109.856 173.588 109.576 173.867C109.305 174.146 109.169 174.63 109.169 175.32V178.889H107.805V172.107H109.169V173.092Z" fill="#383838"/>
<path d="M114.948 177.634L116.815 172.107H118.264L115.75 178.889H114.122L111.621 172.107H113.081L114.948 177.634Z" fill="#383838"/>
<path d="M119.99 171.208C119.742 171.208 119.535 171.122 119.367 170.95C119.2 170.777 119.116 170.564 119.116 170.31C119.116 170.055 119.2 169.842 119.367 169.67C119.535 169.497 119.742 169.411 119.99 169.411C120.229 169.411 120.432 169.497 120.6 169.67C120.768 169.842 120.851 170.055 120.851 170.31C120.851 170.564 120.768 170.777 120.6 170.95C120.432 171.122 120.229 171.208 119.99 171.208ZM120.66 172.107V178.889H119.295V172.107H120.66Z" fill="#383838"/>
<path d="M121.997 175.492C121.997 174.794 122.132 174.183 122.403 173.658C122.683 173.124 123.066 172.714 123.553 172.427C124.039 172.14 124.598 171.996 125.228 171.996C126.026 171.996 126.685 172.193 127.203 172.587C127.73 172.973 128.085 173.527 128.269 174.249H126.796C126.677 173.912 126.485 173.65 126.222 173.461C125.959 173.272 125.627 173.178 125.228 173.178C124.67 173.178 124.223 173.383 123.888 173.793C123.561 174.195 123.397 174.762 123.397 175.492C123.397 176.222 123.561 176.793 123.888 177.203C124.223 177.613 124.67 177.818 125.228 177.818C126.018 177.818 126.541 177.461 126.796 176.747H128.269C128.077 177.437 127.718 177.987 127.191 178.397C126.665 178.799 126.01 179 125.228 179C124.598 179 124.039 178.856 123.553 178.569C123.066 178.274 122.683 177.863 122.403 177.338C122.132 176.805 121.997 176.189 121.997 175.492Z" fill="#383838"/>
<path d="M135.673 175.332C135.673 175.586 135.657 175.816 135.625 176.021H130.586C130.626 176.563 130.822 176.998 131.173 177.326C131.524 177.654 131.955 177.818 132.465 177.818C133.2 177.818 133.718 177.502 134.021 176.871H135.494C135.294 177.494 134.931 178.007 134.404 178.409C133.886 178.803 133.239 179 132.465 179C131.835 179 131.268 178.856 130.766 178.569C130.271 178.274 129.88 177.863 129.593 177.338C129.313 176.805 129.174 176.189 129.174 175.492C129.174 174.794 129.309 174.183 129.581 173.658C129.86 173.124 130.247 172.714 130.742 172.427C131.244 172.14 131.819 171.996 132.465 171.996C133.088 171.996 133.642 172.136 134.129 172.415C134.616 172.694 134.995 173.087 135.266 173.596C135.538 174.097 135.673 174.675 135.673 175.332ZM134.249 174.889C134.241 174.372 134.061 173.957 133.71 173.645C133.359 173.334 132.924 173.178 132.406 173.178C131.935 173.178 131.532 173.334 131.197 173.645C130.861 173.949 130.662 174.364 130.598 174.889H134.249Z" fill="#383838"/>
<rect x="0.5" y="0.5" width="229" height="229" rx="9.5" stroke="black" stroke-opacity="0.04"/>
</g>
<defs>
<clipPath id="clip0_82_2550">
<rect width="230" height="230" rx="10" fill="white"/>
</clipPath>
<clipPath id="clip1_82_2550">
<rect width="95.9999" height="96" fill="white" transform="translate(67 50.9707)"/>
</clipPath>
</defs>
</svg>
